<?xml version="1.0" encoding="UTF-8"?>
<svg version="1.1" xmlns="http://www.w3.org/2000/svg" width="506" height="127">
<path d="M0 0 C1.79296875 1.203125 1.79296875 1.203125 3.375 2.4375 C9.79041691 7.39348558 18.04335296 9.5796834 25.80957031 11.46582031 C34.2866177 13.52642116 41.2605646 15.72970365 46.125 23.3125 C47.38523312 28.62348244 47.56586283 33.06976405 44.9375 37.98828125 C40.48733184 43.89233958 34.44074973 46.23946521 27.30859375 47.4609375 C21.90312713 47.9935667 16.53945627 48.01049501 11.11328125 47.98046875 C10.0577002 47.97499023 9.00211914 47.96951172 7.91455078 47.96386719 C5.80211345 47.94660715 3.68973129 47.91776082 1.57763672 47.87597656 C-4.38869238 47.80419826 -9.26134833 48.42384859 -15 50 C-18.4140625 50.265625 -18.4140625 50.265625 -21.625 50.25 C-23.22214844 50.25773437 -23.22214844 50.25773437 -24.8515625 50.265625 C-28 50 -28 50 -30.875 49.03125 C-34.74158678 47.75527636 -38.33041307 47.47309999 -42.375 47.25 C-43.09171875 47.19457031 -43.8084375 47.13914063 -44.546875 47.08203125 C-49.79351094 46.769506 -53.93708475 47.62109708 -59 49 C-66.85155365 49.82254372 -74.40059365 49.13955653 -81.04296875 44.60546875 C-84.21111913 42.02522257 -86.44313865 39.83733431 -88 36 C-88.4536496 31.31228742 -88.51932919 29.01868418 -86.375 24.8125 C-82.474475 20.19345724 -79.14053191 17.35989678 -73.5625 15.1875 C-69.89903147 13.68658062 -67.92566752 12.07328454 -65.4375 9 C-61.12113701 3.6715243 -56.45014074 1.19786101 -49.6875 0.125 C-46.05061366 -0.18744728 -43.09482926 0.38433058 -39.5625 1.25 C-33.13231968 2.63370969 -29.41043 0.26038972 -24 -3 C-15.66763482 -5.77745506 -7.71443704 -3.69525133 0 0 Z " fill="#E4E4E4" transform="translate(120,37)"/>
<path d="M0 0 C4.0844192 4.0844192 5.33925643 8.87452164 5.6875 14.5625 C5.5946875 15.5215625 5.5946875 15.5215625 5.5 16.5 C0.60945915 17.84911472 -3.39370776 18.61704968 -8.5 18.5 C-7.74074219 19.09167969 -6.98148438 19.68335937 -6.19921875 20.29296875 C-5.20535156 21.08316406 -4.21148437 21.87335937 -3.1875 22.6875 C-2.20136719 23.46480469 -1.21523437 24.24210937 -0.19921875 25.04296875 C4.5366734 29.35393281 6.18330461 33.33661428 6.66015625 39.60546875 C6.85570574 44.68125339 6.42252836 48.16659588 3.5 52.5 C-0.80337081 56.68706349 -4.93926101 58.26289454 -10.875 58.8125 C-16.74740529 58.30625816 -20.92974399 56.83638809 -25.4375 53 C-28.52184187 49.26140379 -28.61769488 46.50406516 -28.5625 41.8125 C-28.55347656 40.81863281 -28.54445312 39.82476562 -28.53515625 38.80078125 C-28.52355469 38.04152344 -28.51195312 37.28226563 -28.5 36.5 C-26.06612247 35.28306124 -24.08161154 35.18040104 -21.375 34.9375 C-20.46492187 34.85371094 -19.55484375 34.76992187 -18.6171875 34.68359375 C-17.91851562 34.62300781 -17.21984375 34.56242187 -16.5 34.5 C-17.18707031 33.93152344 -17.87414062 33.36304688 -18.58203125 32.77734375 C-28.83300638 23.99288867 -28.83300638 23.99288867 -29.765625 16.3125 C-30.0126675 11.08931568 -29.1937735 7.07941496 -26.5 2.5 C-18.95332779 -3.87274542 -8.85067178 -3.79314505 0 0 Z M-12.5 11.5 C-12.17 13.15 -11.84 14.8 -11.5 16.5 C-11.17 15.51 -10.84 14.52 -10.5 13.5 C-11.16 12.84 -11.82 12.18 -12.5 11.5 Z M-13.5 36.5 C-13.520625 37.77875 -13.54125 39.0575 -13.5625 40.375 C-13.57410156 41.09429687 -13.58570313 41.81359375 -13.59765625 42.5546875 C-13.62649242 44.58185404 -13.62649242 44.58185404 -12.5 46.5 C-11.84 46.5 -11.18 46.5 -10.5 46.5 C-9.56619039 41.96859347 -9.56619039 41.96859347 -10.5 37.5 C-11.49 37.17 -12.48 36.84 -13.5 36.5 Z " fill="#999898" transform="translate(203.5,36.5)"/>
<path d="M0 0 C1.02867187 -0.02320313 1.02867187 -0.02320313 2.078125 -0.046875 C7.17866125 -0.00793961 10.06741541 1.33632374 14 4.5 C17.30520475 8.35607221 17.29981806 11.74249098 17.203125 16.609375 C17 18.5 17 18.5 16 19.5 C14.32115762 19.8931648 12.63149955 20.24085452 10.9375 20.5625 C10.01839844 20.73910156 9.09929687 20.91570313 8.15234375 21.09765625 C7.08693359 21.29681641 7.08693359 21.29681641 6 21.5 C6.69867188 22.17546875 7.39734375 22.8509375 8.1171875 23.546875 C9.02726562 24.43890625 9.93734375 25.3309375 10.875 26.25 C11.77992188 27.13171875 12.68484375 28.0134375 13.6171875 28.921875 C18.03805233 33.7051058 18.88763937 38.11587343 19 44.5 C18.63166451 49.55028887 17.79135553 52.61443548 14.375 56.4375 C8.49317389 60.03194929 3.08911623 61.14412862 -3.7578125 60.08984375 C-7.80036815 59.02638399 -11.01168605 57.45323984 -14 54.5 C-17.06736537 49.09608451 -17.33156274 43.57865025 -17 37.5 C-10.565 37.005 -10.565 37.005 -4 36.5 C-4.77085937 35.83613281 -5.54171875 35.17226562 -6.3359375 34.48828125 C-7.34937697 33.59682986 -8.36237467 32.70487608 -9.375 31.8125 C-9.88289063 31.37744141 -10.39078125 30.94238281 -10.9140625 30.49414062 C-14.93623931 26.92181254 -16.7036205 24.14432097 -17.30078125 18.81640625 C-17.34226484 9.06776195 -17.34226484 9.06776195 -14 4.5 C-9.41895941 0.77363117 -5.77479561 -0.13025855 0 0 Z M-1 13.5 C-0.65555119 15.97266765 -0.65555119 15.97266765 0 18.5 C0.66 18.83 1.32 19.16 2 19.5 C1.67 17.52 1.34 15.54 1 13.5 C0.34 13.5 -0.32 13.5 -1 13.5 Z M-1 38.5 C-1 41.8 -1 45.1 -1 48.5 C-0.01 48.5 0.98 48.5 2 48.5 C3.0089034 44.26353233 3.0089034 44.26353233 2.0625 40.125 C1.711875 39.58875 1.36125 39.0525 1 38.5 C0.34 38.5 -0.32 38.5 -1 38.5 Z " fill="#999898" transform="translate(358,34.5)"/>
<path d="M0 0 C2.35929366 1.50771429 3.47530649 2.90566323 4.98046875 5.265625 C6.77794509 13.43977956 6.19555224 22.43803708 6.23046875 30.765625 C6.25109375 32.02632812 6.27171875 33.28703125 6.29296875 34.5859375 C6.30070312 36.39191406 6.30070312 36.39191406 6.30859375 38.234375 C6.3226123 39.86536133 6.3226123 39.86536133 6.33691406 41.52929688 C5.98046875 44.265625 5.98046875 44.265625 4.62207031 46.12207031 C2.22786965 47.78989243 0.3628952 47.59310958 -2.51953125 47.515625 C-3.47859375 47.50015625 -4.43765625 47.4846875 -5.42578125 47.46875 C-8.01953125 47.265625 -8.01953125 47.265625 -11.01953125 46.265625 C-12.13328125 46.760625 -12.13328125 46.760625 -13.26953125 47.265625 C-16.91784203 48.59228346 -19.27198879 48.15140776 -23.01953125 47.265625 C-26.17395013 45.43938249 -26.84814958 44.77977002 -28.01953125 41.265625 C-28.19162931 38.81111166 -28.28611563 36.35073582 -28.33203125 33.890625 C-28.36941406 32.58351562 -28.40679687 31.27640625 -28.4453125 29.9296875 C-27.95983421 25.75190186 -26.99220836 24.17260759 -24.01953125 21.265625 C-21.76953125 20.453125 -21.76953125 20.453125 -20.01953125 20.265625 C-20.01953125 19.605625 -20.01953125 18.945625 -20.01953125 18.265625 C-21.72109375 18.2965625 -21.72109375 18.2965625 -23.45703125 18.328125 C-27.01953125 18.265625 -27.01953125 18.265625 -28.01953125 17.265625 C-28.61529354 12.26973266 -29.18708883 6.9642332 -26.01953125 2.765625 C-17.90134767 -3.99952799 -9.40380923 -4.19426536 0 0 Z M-13.01953125 9.265625 C-13.01953125 11.245625 -13.01953125 13.225625 -13.01953125 15.265625 C-12.35953125 14.935625 -11.69953125 14.605625 -11.01953125 14.265625 C-11.34953125 12.615625 -11.67953125 10.965625 -12.01953125 9.265625 C-12.34953125 9.265625 -12.67953125 9.265625 -13.01953125 9.265625 Z M-12.01953125 27.265625 C-13.25220473 28.27398562 -13.25220473 28.27398562 -13.1171875 30.33203125 C-13.10558594 31.15574219 -13.09398437 31.97945312 -13.08203125 32.828125 C-13.07300781 33.65441406 -13.06398438 34.48070312 -13.0546875 35.33203125 C-13.04308594 35.97011719 -13.03148437 36.60820313 -13.01953125 37.265625 C-12.02953125 37.760625 -12.02953125 37.760625 -11.01953125 38.265625 C-11.01953125 34.635625 -11.01953125 31.005625 -11.01953125 27.265625 C-11.34953125 27.265625 -11.67953125 27.265625 -12.01953125 27.265625 Z " fill="#989897" transform="translate(407.01953125,46.734375)"/>
<path d="M0 0 C4.77919001 4.18179126 5.93498794 7.03763779 6.37890625 13.234375 C6.73160965 21.8357869 6.57040619 30.40616713 6.125 39 C6.09422363 39.70012207 6.06344727 40.40024414 6.03173828 41.12158203 C5.93000414 42.81644754 5.7244029 44.50447823 5.5 46.1875 C1.43925967 48.21787016 -3.98046001 47.52517555 -8.3125 46.5625 C-10.51617218 45.95051462 -10.51617218 45.95051462 -12.3125 47.1875 C-15.7460503 48.75712299 -18.92752229 48.22183133 -22.5 47.1875 C-24.88312703 45.29321954 -26.1500559 43.88738821 -27.5 41.1875 C-27.73011472 38.5630271 -27.86961886 36.00363847 -27.9375 33.375 C-27.98326172 32.66279297 -28.02902344 31.95058594 -28.07617188 31.21679688 C-28.13876307 28.27501048 -28.08214374 25.91786565 -26.20361328 23.56103516 C-22.29259561 20.1875 -22.29259561 20.1875 -19.5 20.1875 C-19.5 19.5275 -19.5 18.8675 -19.5 18.1875 C-21.170625 18.249375 -21.170625 18.249375 -22.875 18.3125 C-26.5 18.1875 -26.5 18.1875 -28.5 16.1875 C-28.83298718 11.44029819 -28.33497363 6.63613862 -25.4375 2.75 C-17.98062462 -3.75493384 -8.8533118 -4.58475075 0 0 Z M-11.5 11.1875 C-11.83 12.5075 -12.16 13.8275 -12.5 15.1875 C-11.84 15.1875 -11.18 15.1875 -10.5 15.1875 C-10.83 13.8675 -11.16 12.5475 -11.5 11.1875 Z M-11.5 27.1875 C-12.70272819 29.59295638 -12.60071472 31.13746953 -12.5625 33.8125 C-12.55347656 34.62976563 -12.54445313 35.44703125 -12.53515625 36.2890625 C-12.52355469 36.91554688 -12.51195312 37.54203125 -12.5 38.1875 C-11.84 38.1875 -11.18 38.1875 -10.5 38.1875 C-10.5 34.5575 -10.5 30.9275 -10.5 27.1875 C-10.83 27.1875 -11.16 27.1875 -11.5 27.1875 Z " fill="#999897" transform="translate(275.5,46.8125)"/>
<path d="M0 0 C3.30182371 3.05724418 5.88535629 6.20064719 6.17700195 10.77807617 C6.2315037 13.90421823 6.27659378 17.02991474 6.29516602 20.15649414 C6.31228668 22.16250573 6.35617119 24.16823089 6.40039062 26.17382812 C6.44713007 33.29620037 6.47764086 38.29742226 2 44 C-2.24031583 47.74145514 -7.52247061 48.12208461 -13 48 C-17.87368274 47.20696789 -21.68217604 45.80812361 -25 42.0625 C-29.09436629 35.79300161 -28.25491805 28.96969787 -28.3125 21.6875 C-28.34150391 20.47642578 -28.37050781 19.26535156 -28.40039062 18.01757812 C-28.44941494 11.12777607 -28.27768092 6.52892214 -24 1 C-16.79025263 -4.40731053 -7.77346276 -4.41636983 0 0 Z M-11 11 C-10 15 -10 15 -10 15 Z M-11 24 C-12.23887548 26.47775095 -12.16741669 28.23653707 -12.1875 31 C-12.20167969 31.886875 -12.21585937 32.77375 -12.23046875 33.6875 C-12.22713126 36.19519984 -12.22713126 36.19519984 -10 38 C-8.68737429 36.91447634 -8.68737429 36.91447634 -8.90234375 34.27734375 C-8.91394531 33.17519531 -8.92554688 32.07304688 -8.9375 30.9375 C-8.95103516 29.28041016 -8.95103516 29.28041016 -8.96484375 27.58984375 C-8.97644531 26.73519531 -8.98804688 25.88054687 -9 25 C-9.66 24.67 -10.32 24.34 -11 24 Z " fill="#999998" transform="translate(464,47)"/>
<path d="M0 0 C3.36774082 2.29232779 5.5101046 4.08271864 6.6875 8.0703125 C6.82671875 9.08351563 6.9659375 10.09671875 7.109375 11.140625 C7.25890625 12.14867187 7.4084375 13.15671875 7.5625 14.1953125 C7.85730924 17.24426067 7.91053531 20.20453295 7.859375 23.265625 C7.859375 24.255625 7.859375 25.245625 7.859375 26.265625 C7.59807028 34.58818039 6.53061929 39.38459533 0.671875 45.578125 C-4.03133163 48.40004898 -8.39185803 48.69039731 -13.76953125 47.859375 C-19.76997666 46.35702801 -22.82662241 44.50388715 -26.140625 39.265625 C-27.91151675 33.92228186 -27.40718997 28.07682584 -27.453125 22.515625 C-27.48212891 21.360625 -27.51113281 20.205625 -27.54101562 19.015625 C-27.59074622 12.31347116 -27.36652935 6.71968562 -23.140625 1.265625 C-16.11864162 -4.33084295 -7.63498485 -3.97524004 0 0 Z M-10.140625 8.265625 C-10.470625 10.245625 -10.800625 12.225625 -11.140625 14.265625 C-10.150625 14.760625 -10.150625 14.760625 -9.140625 15.265625 C-9.140625 12.955625 -9.140625 10.645625 -9.140625 8.265625 C-9.470625 8.265625 -9.800625 8.265625 -10.140625 8.265625 Z M-11.140625 24.265625 C-11.140625 28.555625 -11.140625 32.845625 -11.140625 37.265625 C-10.150625 37.265625 -9.160625 37.265625 -8.140625 37.265625 C-8.08003906 36.57855469 -8.01945312 35.89148438 -7.95703125 35.18359375 C-7.87324219 34.28253906 -7.78945313 33.38148437 -7.703125 32.453125 C-7.62191406 31.55980469 -7.54070312 30.66648437 -7.45703125 29.74609375 C-7.140625 27.265625 -7.140625 27.265625 -6.140625 24.265625 C-7.790625 24.265625 -9.440625 24.265625 -11.140625 24.265625 Z " fill="#999898" transform="translate(331.140625,46.734375)"/>
<path d="M0 0 C4.59940147 2.47004894 8.76159163 5.67892791 10.375 10.8125 C10.52535617 13.50335704 10.46499513 16.11264607 10.375 18.8125 C5.54747654 20.05831251 -1.02956709 21.11021645 -5.625 18.8125 C-5.955 16.1725 -6.285 13.5325 -6.625 10.8125 C-6.625 20.0525 -6.625 29.2925 -6.625 38.8125 C-6.295 38.8125 -5.965 38.8125 -5.625 38.8125 C-5.55152344 37.87277344 -5.55152344 37.87277344 -5.4765625 36.9140625 C-5.40179688 36.09679687 -5.32703125 35.27953125 -5.25 34.4375 C-5.18039063 33.62539062 -5.11078125 32.81328125 -5.0390625 31.9765625 C-4.625 29.8125 -4.625 29.8125 -2.625 27.8125 C-0.0234375 27.6171875 -0.0234375 27.6171875 3 27.6875 C4.50433594 27.71457031 4.50433594 27.71457031 6.0390625 27.7421875 C6.80992187 27.76539062 7.58078125 27.78859375 8.375 27.8125 C10.93142888 31.98960831 10.25676837 34.79118039 9.2109375 39.40234375 C7.60394255 44.03559556 4.3094996 46.18950027 0.375 48.8125 C-5.96423517 50.50550859 -11.84213365 49.93928239 -17.625 46.8125 C-20.58632613 44.22486502 -22.37104022 41.57437933 -23.625 37.8125 C-23.88824234 33.21253951 -23.85649002 28.60667198 -23.875 24 C-23.895625 22.72833984 -23.91625 21.45667969 -23.9375 20.14648438 C-23.94265625 18.91607422 -23.9478125 17.68566406 -23.953125 16.41796875 C-23.9624707 15.29543701 -23.97181641 14.17290527 -23.98144531 13.01635742 C-23.50997556 8.77861935 -22.2546018 5.16432877 -18.90625 2.38671875 C-12.19131919 -0.95602093 -7.35658505 -2.40991579 0 0 Z " fill="#999797" transform="translate(235.625,45.1875)"/>
<path d="M0 0 C1.79296875 1.203125 1.79296875 1.203125 3.375 2.4375 C9.79041691 7.39348558 18.04335296 9.5796834 25.80957031 11.46582031 C34.2866177 13.52642116 41.2605646 15.72970365 46.125 23.3125 C47.38523312 28.62348244 47.56586283 33.06976405 44.9375 37.98828125 C40.48733184 43.89233958 34.44074973 46.23946521 27.30859375 47.4609375 C21.90312713 47.9935667 16.53945627 48.01049501 11.11328125 47.98046875 C10.0577002 47.97499023 9.00211914 47.96951172 7.91455078 47.96386719 C5.80211345 47.94660715 3.68973129 47.91776082 1.57763672 47.87597656 C-4.38869238 47.80419826 -9.26134833 48.42384859 -15 50 C-18.4140625 50.265625 -18.4140625 50.265625 -21.625 50.25 C-23.22214844 50.25773437 -23.22214844 50.25773437 -24.8515625 50.265625 C-28 50 -28 50 -30.875 49.03125 C-34.74158678 47.75527636 -38.33041307 47.47309999 -42.375 47.25 C-43.09171875 47.19457031 -43.8084375 47.13914063 -44.546875 47.08203125 C-49.79351094 46.769506 -53.93708475 47.62109708 -59 49 C-66.85155365 49.82254372 -74.40059365 49.13955653 -81.04296875 44.60546875 C-84.21111913 42.02522257 -86.44313865 39.83733431 -88 36 C-88.4536496 31.31228742 -88.51932919 29.01868418 -86.375 24.8125 C-82.474475 20.19345724 -79.14053191 17.35989678 -73.5625 15.1875 C-69.89903147 13.68658062 -67.92566752 12.07328454 -65.4375 9 C-61.12113701 3.6715243 -56.45014074 1.19786101 -49.6875 0.125 C-46.05061366 -0.18744728 -43.09482926 0.38433058 -39.5625 1.25 C-33.13231968 2.63370969 -29.41043 0.26038972 -24 -3 C-15.66763482 -5.77745506 -7.71443704 -3.69525133 0 0 Z M-65.0625 10.125 C-67.27942673 12.83681329 -67.27942673 12.83681329 -67 16 C-67.6290625 16.06316406 -68.258125 16.12632813 -68.90625 16.19140625 C-76.01380423 17.2083003 -80.19196311 19.67726464 -85 25 C-86.74066912 28.48133825 -86.44364397 32.1936633 -86 36 C-83.46509192 41.49230084 -79.41868789 44.55713015 -74 47 C-70.67164524 47.57978667 -67.49174 47.52660786 -64.125 47.375 C-62.84496094 47.35373047 -62.84496094 47.35373047 -61.5390625 47.33203125 C-57.11789027 47.33561276 -57.11789027 47.33561276 -53 46 C-35.8687096 45.08820153 -35.8687096 45.08820153 -28.00390625 48.3203125 C-22.63028913 50.14294287 -17.02937688 49.62634497 -11.875 47.4375 C-8.44073461 45.97930001 -6.08218567 46.01473506 -2.359375 46.6640625 C8.89034244 48.26584346 26.81876552 48.6133887 36.9375 42.6875 C39.7258198 40.55338735 41.52777796 38.22048571 43 35 C42.34 34.67 41.68 34.34 41 34 C40.566875 32.7625 40.13375 31.525 39.6875 30.25 C37.85654469 25.13247991 35.05167582 22.33358928 30.5 19.375 C26.10669071 17.64905706 21.66676441 16.75030474 17.05859375 15.76171875 C13.74535276 14.93658211 11.02756476 13.5507039 8 12 C4.74899636 11.74803177 4.74899636 11.74803177 2 12 C3.09660771 14.27756986 4.24438044 16.37596991 5.625 18.5 C7 21 7 21 7 25 C6.69449219 24.40832031 6.38898438 23.81664063 6.07421875 23.20703125 C2.08048168 16.31080359 -2.2911287 13.07507979 -10 11 C-17.35654738 10.04448376 -23.29634392 10.90600489 -30 14 C-30 13.34 -30 12.68 -30 12 C-24.91863474 10.33267702 -20.36517237 9.68833135 -15 9.75 C-14.32710938 9.74226563 -13.65421875 9.73453125 -12.9609375 9.7265625 C-8.25052382 9.74474943 -4.42515911 10.54799467 0 12 C-0.79117904 10.00016466 -0.79117904 10.00016466 -2 8 C-2.99 7.67 -3.98 7.34 -5 7 C-5 6.34 -5 5.68 -5 5 C-9.26847317 2.92744656 -12.84656005 2.73126737 -17.5625 2.75 C-19.51349609 2.74226563 -19.51349609 2.74226563 -21.50390625 2.734375 C-24.75112164 2.98109081 -26.25097652 3.4505504 -29 5 C-32.05323729 4.74015002 -34.49810948 4.22239971 -37.30078125 2.98046875 C-47.60730153 -0.76328898 -57.88297492 2.12552916 -65.0625 10.125 Z " fill="#CFCFCF" transform="translate(120,37)"/>
<path d="M0 0 C0.91247268 3.7328428 1.04693669 6.33572158 0 10 C0.33 10.66 0.66 11.32 1 12 C1.039992 13.99960012 1.04346799 16.00047242 1 18 C0.01 18.33 -0.98 18.66 -2 19 C-1.98839844 20.23492187 -1.97679687 21.46984375 -1.96484375 22.7421875 C-1.89199459 34.20227081 -2.22671487 45.56642704 -3 57 C-5.72542267 58.36271133 -7.96087274 58.16923601 -11 58.1875 C-12.0725 58.20167969 -13.145 58.21585938 -14.25 58.23046875 C-17 58 -17 58 -19 56 C-19.22125802 53.30275932 -19.325266 50.70007531 -19.34375 48 C-19.3583728 47.20851562 -19.37299561 46.41703125 -19.38806152 45.6015625 C-19.45044389 42.20849682 -19.48996382 38.81524678 -19.53173828 35.421875 C-19.56541638 32.94772047 -19.61054325 30.47395672 -19.65625 28 C-19.6615271 27.22914062 -19.6668042 26.45828125 -19.67224121 25.6640625 C-19.59930121 21.36907248 -19.59930121 21.36907248 -22 18 C-22.52662971 13.26033257 -21.62596904 10.89032451 -19 7 C-18.566875 5.948125 -18.13375 4.89625 -17.6875 3.8125 C-16 1 -16 1 -13.3125 -0.375 C-8.96518707 -1.19524772 -4.08150457 -2.04075229 0 0 Z " fill="#999897" transform="translate(435,36)"/>
<path d="M0 0 C0.96808594 -0.01417969 1.93617188 -0.02835938 2.93359375 -0.04296875 C5.5625 0.1875 5.5625 0.1875 8.5625 2.1875 C8.96230131 4.92201887 9.17030054 7.43958876 9.25 10.1875 C9.28270996 10.99131104 9.31541992 11.79512207 9.34912109 12.62329102 C9.44198446 15.14460516 9.50788945 17.66508296 9.5625 20.1875 C9.57909668 20.94788574 9.59569336 21.70827148 9.61279297 22.49169922 C9.70592032 27.72637589 9.67368085 32.95336468 9.5625 38.1875 C9.54461426 39.04746582 9.52672852 39.90743164 9.50830078 40.79345703 C9.44257277 43.42593568 9.35125307 46.05616724 9.25 48.6875 C9.22760254 49.50726318 9.20520508 50.32702637 9.18212891 51.17163086 C9.07421875 53.46875 9.07421875 53.46875 8.5625 57.1875 C5.08864567 59.50340289 3.59819994 59.45741835 -0.5 59.4375 C-1.56347656 59.44265625 -2.62695312 59.4478125 -3.72265625 59.453125 C-6.4375 59.1875 -6.4375 59.1875 -8.4375 57.1875 C-8.68473816 55.22325134 -8.68473816 55.22325134 -8.68041992 52.78881836 C-8.68349655 51.8770433 -8.68657318 50.96526825 -8.68974304 50.02586365 C-8.68255753 49.03635208 -8.67537201 48.04684052 -8.66796875 47.02734375 C-8.66751053 46.0083046 -8.66705231 44.98926544 -8.6665802 43.93934631 C-8.66355369 41.77636557 -8.65565559 39.61338708 -8.64331055 37.45043945 C-8.62520837 34.16284317 -8.62279985 30.87553124 -8.62304688 27.58789062 C-8.61812544 25.4843726 -8.61229441 23.38085646 -8.60546875 21.27734375 C-8.60435593 20.3020018 -8.6032431 19.32665985 -8.60209656 18.32176208 C-8.56260102 12.54066962 -8.34531388 6.90380602 -7.4375 1.1875 C-4.84996844 -0.10626578 -2.88791015 0.01917603 0 0 Z " fill="#999898" transform="translate(292.4375,34.8125)"/>
<path d="M0 0 C1.79296875 1.203125 1.79296875 1.203125 3.375 2.4375 C9.79041691 7.39348558 18.04335296 9.5796834 25.80957031 11.46582031 C34.2866177 13.52642116 41.2605646 15.72970365 46.125 23.3125 C47.38523312 28.62348244 47.56586283 33.06976405 44.9375 37.98828125 C40.48733184 43.89233958 34.44074973 46.23946521 27.30859375 47.4609375 C21.90312713 47.9935667 16.53945627 48.01049501 11.11328125 47.98046875 C10.0577002 47.97499023 9.00211914 47.96951172 7.91455078 47.96386719 C5.80211345 47.94660715 3.68973129 47.91776082 1.57763672 47.87597656 C-4.38869238 47.80419826 -9.26134833 48.42384859 -15 50 C-18.4140625 50.265625 -18.4140625 50.265625 -21.625 50.25 C-23.22214844 50.25773437 -23.22214844 50.25773437 -24.8515625 50.265625 C-28 50 -28 50 -30.875 49.03125 C-34.74158678 47.75527636 -38.33041307 47.47309999 -42.375 47.25 C-43.09171875 47.19457031 -43.8084375 47.13914063 -44.546875 47.08203125 C-49.79351094 46.769506 -53.93708475 47.62109708 -59 49 C-66.85155365 49.82254372 -74.40059365 49.13955653 -81.04296875 44.60546875 C-84.21111913 42.02522257 -86.44313865 39.83733431 -88 36 C-88.4536496 31.31228742 -88.51932919 29.01868418 -86.375 24.8125 C-82.474475 20.19345724 -79.14053191 17.35989678 -73.5625 15.1875 C-69.89903147 13.68658062 -67.92566752 12.07328454 -65.4375 9 C-61.12113701 3.6715243 -56.45014074 1.19786101 -49.6875 0.125 C-46.05061366 -0.18744728 -43.09482926 0.38433058 -39.5625 1.25 C-33.13231968 2.63370969 -29.41043 0.26038972 -24 -3 C-15.66763482 -5.77745506 -7.71443704 -3.69525133 0 0 Z M-32.9765625 3.2578125 C-35.87091851 4.31944887 -37.22545542 3.21078499 -40 2 C-47.43057738 1.08561548 -53.75080027 1.37045432 -60.12109375 5.5 C-62.97167292 7.77572224 -64.95444742 9.96466391 -67 13 C-67 13.99 -67 14.98 -67 16 C-67.6290625 16.06316406 -68.258125 16.12632813 -68.90625 16.19140625 C-76.01380423 17.2083003 -80.19196311 19.67726464 -85 25 C-86.74066912 28.48133825 -86.44364397 32.1936633 -86 36 C-83.46509192 41.49230084 -79.41868789 44.55713015 -74 47 C-70.67164524 47.57978667 -67.49174 47.52660786 -64.125 47.375 C-62.84496094 47.35373047 -62.84496094 47.35373047 -61.5390625 47.33203125 C-57.11789027 47.33561276 -57.11789027 47.33561276 -53 46 C-35.8687096 45.08820153 -35.8687096 45.08820153 -28.00390625 48.3203125 C-22.63028913 50.14294287 -17.02937688 49.62634497 -11.875 47.4375 C-8.44073461 45.97930001 -6.08218567 46.01473506 -2.359375 46.6640625 C8.8315978 48.25747916 26.83165297 48.6460529 36.875 42.6875 C38.57620089 41.38451906 38.57620089 41.38451906 40 40 C40.825 39.278125 41.65 38.55625 42.5 37.8125 C44.71604425 33.65741703 44.64587086 29.6187277 44 25 C42.08893957 19.80460456 37.78625554 17.3860265 33 15 C30.21196429 14.3049656 27.4745268 13.88004677 24.62890625 13.4921875 C21.32728801 12.87405392 18.8694422 11.55721301 15.96484375 9.9296875 C13.77626864 8.89413904 11.82124409 8.51894084 9.4375 8.125 C5.06012599 7.29442134 2.98454919 5.45831752 -0.19921875 2.46484375 C-5.31804249 -1.69905842 -12.02139431 -2.55357802 -18.44140625 -2.36328125 C-23.61881533 -1.62816821 -28.57306074 0.45558411 -32.9765625 3.2578125 Z " fill="#353333" transform="translate(120,37)"/>
<path d="M0 0 C0.99 0.33 1.98 0.66 3 1 C2.01 1.66 1.02 2.32 0 3 C-0.9075 3.7425 -1.815 4.485 -2.75 5.25 C-6 7 -6 7 -9.0625 6.25 C-9.93455078 5.93095703 -9.93455078 5.93095703 -10.82421875 5.60546875 C-17.51163582 3.74451786 -24.89417097 3.94530392 -31.0625 7.1875 C-35.446591 10.02710389 -38.32735076 12.98205229 -40 18 C-42.0390625 18.73828125 -42.0390625 18.73828125 -44.625 19.3125 C-49.87803044 20.72938626 -53.34565701 22.98804547 -57 27 C-58.73951425 30.47902851 -58.44901673 34.19618684 -58 38 C-56.0498502 42.13431758 -53.57137073 45.07751027 -49.48046875 47.25390625 C-43.56667372 49.03270129 -37.13353664 48.85273622 -31 49 C-31.33 49.66 -31.66 50.32 -32 51 C-42.19805889 51.51466839 -49.79212102 50.51053101 -57.58984375 43.59765625 C-60.73686195 40.03219795 -61.45414216 36.7911015 -61.3125 32.01953125 C-60.5155276 26.86909708 -56.68576383 23.27480968 -52.765625 20.13671875 C-50.76848915 18.85095209 -48.77433869 18.04891337 -46.5625 17.1875 C-42.89903147 15.68658062 -40.92566752 14.07328454 -38.4375 11 C-34.12113701 5.6715243 -29.45014074 3.19786101 -22.6875 2.125 C-19.02392642 1.81495664 -15.94854588 2.37110853 -12.375 3.1875 C-8.45309572 4.03340092 -6.44488181 4.19919884 -3 2.0625 C-2.01 1.381875 -1.02 0.70125 0 0 Z " fill="#474142" transform="translate(93,35)"/>
<path d="M0 0 C-0.33 0.99 -0.66 1.98 -1 3 C-2.11375 2.7525 -2.11375 2.7525 -3.25 2.5 C-12.52084181 1.26388776 -20.69985831 1.25055878 -29 6 C-30.95733962 7.55968597 -32.38812131 9.06574557 -34 11 C-33.49396008 8.83125748 -33.00016187 7.00032373 -32 5 C-32.78375 5.20625 -33.5675 5.4125 -34.375 5.625 C-35.24125 5.74875 -36.1075 5.8725 -37 6 C-37.66 5.34 -38.32 4.68 -39 4 C-37.54494642 3.47007308 -36.08581873 2.9513211 -34.625 2.4375 C-33.81289063 2.14746094 -33.00078125 1.85742188 -32.1640625 1.55859375 C-30 1 -30 1 -28 2 C-25.64903024 1.0421975 -23.31648799 0.03842565 -21 -1 C-14.09639186 -3.4496674 -6.84517682 -1.77467547 0 0 Z " fill="#CFCFCF" transform="translate(81,52)"/>
<path d="M0 0 C0.66 0 1.32 0 2 0 C2.82775319 5.67498915 3.10530417 11.07756763 2.94921875 16.8046875 C2.92091728 18.0124736 2.92091728 18.0124736 2.89204407 19.24465942 C2.85047841 20.93043809 2.805778 22.61614217 2.75805664 24.30175781 C2.68712907 26.88852804 2.63316251 29.47530916 2.58007812 32.0625 C2.53748304 33.70575605 2.49389895 35.34898682 2.44921875 36.9921875 C2.43453049 37.76609833 2.41984222 38.54000916 2.40470886 39.33737183 C2.22913485 44.77086515 2.22913485 44.77086515 0 47 C0 31.49 0 15.98 0 0 Z " fill="#8E8C8A" transform="translate(284,45)"/>
<path d="M0 0 C1.12148437 -0.01417969 2.24296875 -0.02835938 3.3984375 -0.04296875 C6.57384842 0.18384632 8.76734718 0.83359332 11.625 2.1875 C11.625 3.1775 11.625 4.1675 11.625 5.1875 C7.10775862 6.31681034 7.10775862 6.31681034 4.875 5.71875 C1.84305694 5.00287456 -1.01418548 5.09389185 -4.125 5.125 C-5.88070312 5.13853516 -5.88070312 5.13853516 -7.671875 5.15234375 C-8.56390625 5.16394531 -9.4559375 5.17554688 -10.375 5.1875 C-10.0625 3.25 -10.0625 3.25 -9.375 1.1875 C-6.0588381 0.0821127 -3.48963365 0.01996358 0 0 Z " fill="#C3C2C0" transform="translate(73.375,38.8125)"/>
<path d="M0 0 C2.42909079 1.55889926 4.68233295 3.27311082 7 5 C10.2582888 6.31131626 10.2582888 6.31131626 13 7 C13 7.33 13 7.66 13 8 C6.05382272 8.73117656 6.05382272 8.73117656 3.2265625 6.76953125 C2.67742187 6.24746094 2.12828125 5.72539063 1.5625 5.1875 C-5.38420538 -1.40096721 -13.02306415 -1.31059857 -22.25390625 -1.10546875 C-23.16011719 -1.07066406 -24.06632812 -1.03585938 -25 -1 C-21.12436546 -8.75126907 -5.59511847 -2.67704899 0 0 Z " fill="#242322" transform="translate(120,37)"/>
<path d="M0 0 C0.5465625 0.31066406 1.093125 0.62132812 1.65625 0.94140625 C5.10369984 2.49850443 8.62018449 2.81302061 12.34375 3.33984375 C15.208816 4.05189692 16.78671646 5.08425693 19 7 C18.34 7 17.68 7 17 7 C16.34 8.32 15.68 9.64 15 11 C14.154375 10.54625 13.30875 10.0925 12.4375 9.625 C9.01409023 7.88821101 9.01409023 7.88821101 5.1875 6.9375 C3.6096875 6.4734375 3.6096875 6.4734375 2 6 C1.67 5.34 1.34 4.68 1 4 C1.33 3.34 1.66 2.68 2 2 C1.34 2 0.68 2 0 2 C0 1.34 0 0.68 0 0 Z " fill="#C9C8C9" transform="translate(138,48)"/>
<path d="M0 0 C6.27 0 12.54 0 19 0 C19 0.99 19 1.98 19 3 C13.33333333 3 7.66666667 3 2 3 C1.97291433 4.60407328 1.95356517 6.2082785 1.9375 7.8125 C1.92589844 8.70582031 1.91429687 9.59914063 1.90234375 10.51953125 C1.88990033 13.13413791 1.88990033 13.13413791 3 16 C2.34 16 1.68 16 1 16 C-1.14711018 10.49803017 -1.89455962 5.68367887 0 0 Z " fill="#8B8482" transform="translate(451,70)"/>
<path d="M0 0 C1.32 0.33 2.64 0.66 4 1 C4.33 3.97 4.66 6.94 5 10 C-3.28571429 15.57142857 -3.28571429 15.57142857 -9 16 C-8.67 15.34 -8.34 14.68 -8 14 C-7.34 14 -6.68 14 -6 14 C-6 13.34 -6 12.68 -6 12 C-7.98 12 -9.96 12 -12 12 C-12 11.67 -12 11.34 -12 11 C-8.04 11 -4.08 11 0 11 C0 7.37 0 3.74 0 0 Z M1 3 C1 4.98 1 6.96 1 9 C1.66 8.67 2.32 8.34 3 8 C2.67 6.35 2.34 4.7 2 3 C1.67 3 1.34 3 1 3 Z " fill="#908887" transform="translate(393,53)"/>
<path d="M0 0 C3.37050159 -0.24075011 5.52147099 -0.24510022 8.5625 1.3125 C11.94009014 2.97058971 14.64316501 3.59569968 18.3125 4.3125 C24.40509878 5.62604194 29.38604778 7.71987378 34 12 C34 12.66 34 13.32 34 14 C31.05451455 12.9604169 28.87688063 11.90619477 26.375 10 C22.44045841 7.6684198 19.21696816 7.24258562 14.75390625 6.5625 C10.74611397 5.74388711 7.52255546 4.00840579 4 2 C2.66995525 1.32679633 1.33742308 0.65842367 0 0 Z " fill="#312F30" transform="translate(130,45)"/>
<path d="M0 0 C0.99 0.33 1.98 0.66 3 1 C2.01 1.66 1.02 2.32 0 3 C-0.9075 3.7425 -1.815 4.485 -2.75 5.25 C-6 7 -6 7 -9.0625 6.25 C-9.63742188 6.0334375 -10.21234375 5.816875 -10.8046875 5.59375 C-16.98387437 3.92251085 -24.36537485 3.89906535 -30 7 C-32.25 6.625 -32.25 6.625 -34 6 C-26.5869732 2.37234859 -20.48421887 1.32126881 -12.375 3.1875 C-8.45309572 4.03340092 -6.44488181 4.19919884 -3 2.0625 C-2.01 1.381875 -1.02 0.70125 0 0 Z " fill="#2C2928" transform="translate(93,35)"/>
<path d="M0 0 C1.32 0 2.64 0 4 0 C4.33 2.31 4.66 4.62 5 7 C7.64 7 10.28 7 13 7 C12.67 7.66 12.34 8.32 12 9 C10.02 9 8.04 9 6 9 C7.65 10.65 9.3 12.3 11 14 C6.26596009 12.60763532 2.81091942 10.03182381 0 6 C-0.375 2.625 -0.375 2.625 0 0 Z M2 2 C2.33 3.65 2.66 5.3 3 7 C3.33 6.01 3.66 5.02 4 4 C3.34 3.34 2.68 2.68 2 2 Z " fill="#85827F" transform="translate(189,46)"/>
<path d="M0 0 C0.99 0.33 1.98 0.66 3 1 C1.576875 2.0828125 1.576875 2.0828125 0.125 3.1875 C-2.19209407 5.07214103 -2.906433 5.67251551 -3.75 8.625 C-5 11 -5 11 -7.08984375 11.8046875 C-8.84920394 12.27561399 -10.61244272 12.73224251 -12.37890625 13.17578125 C-16.25867773 14.39579881 -18.84909045 16.46557275 -22 19 C-20.7452311 15.09627453 -18.36390135 13.80780631 -14.859375 11.91796875 C-13.26895406 11.13278194 -11.63724733 10.43218639 -10 9.75 C-5.76176606 7.27769687 -3.04649315 3.79459649 0 0 Z " fill="#555354" transform="translate(58,42)"/>
<path d="M0 0 C1.32 0 2.64 0 4 0 C4 11.88 4 23.76 4 36 C3.01 36.495 3.01 36.495 2 37 C1.97494385 35.95021973 1.9498877 34.90043945 1.92407227 33.81884766 C1.83003733 29.93118676 1.7298072 26.04370619 1.62768555 22.15625 C1.58432183 20.47237358 1.5426478 18.78845277 1.50268555 17.10449219 C1.44501766 14.68671276 1.3813135 12.26915705 1.31640625 9.8515625 C1.29969376 9.0963028 1.28298126 8.34104309 1.26576233 7.56289673 C1.22444893 3.65260201 1.22444893 3.65260201 0 0 Z " fill="#8F8C89" transform="translate(414,54)"/>
<path d="M0 0 C0.99 0 1.98 0 3 0 C5.54794407 4.64625095 5.16608333 8.97831855 4 14 C3.01 15.485 3.01 15.485 2 17 C1.01 16.67 0.02 16.34 -1 16 C-0.34 15.01 0.32 14.02 1 13 C1.27923967 10.58712654 1.27923967 10.58712654 1.1875 8 C1.18105469 7.13375 1.17460937 6.2675 1.16796875 5.375 C1.08830437 2.85072535 1.08830437 2.85072535 0 0 Z " fill="#4D4946" transform="translate(162,59)"/>
<path d="M0 0 C0.93423645 3.01031744 1.04449911 3.86650268 0 7 C-4.62 7 -9.24 7 -14 7 C-11 4 -11 4 -7.125 3.625 C-4.33279049 3.31975846 -3.25707001 3.20083594 -1 1.4375 C-0.67 0.963125 -0.34 0.48875 0 0 Z " fill="#8A8485" transform="translate(338,66)"/>
<path d="M0 0 C2.475 0.495 2.475 0.495 5 1 C4.67 3.97 4.34 6.94 4 10 C2.68 10 1.36 10 0 10 C0 6.7 0 3.4 0 0 Z M2 5 C3 9 3 9 3 9 Z " fill="#8F8989" transform="translate(451,53)"/>
<path d="M0 0 C1.32 0 2.64 0 4 0 C4 3.63 4 7.26 4 11 C3.34 11 2.68 11 2 11 C2 9.35 2 7.7 2 6 C1.34 6.99 0.68 7.98 0 9 C-0.84454356 5.62182575 -1.10844919 3.32534757 0 0 Z " fill="#8D8483" transform="translate(262,53)"/>
<path d="M0 0 C4.48040441 0.51204622 6.5455625 2.21959908 10 5 C13.17921787 6.25556887 13.17921787 6.25556887 16 7 C16 7.33 16 7.66 16 8 C9.27586207 8.84051724 9.27586207 8.84051724 5.6875 6.4765625 C3.68474851 4.72415494 1.78214883 2.97647889 0 1 C0 0.67 0 0.34 0 0 Z " fill="#181717" transform="translate(117,37)"/>
<path d="M0 0 C-0.99 0.66 -1.98 1.32 -3 2 C-3.474375 2.495 -3.94875 2.99 -4.4375 3.5 C-6.20424382 5.19607407 -7.70738769 6.14027038 -10 7 C-10.99 6.67 -11.98 6.34 -13 6 C-11.87720538 5.01830524 -10.75168527 4.03972702 -9.625 3.0625 C-8.68527344 2.24458984 -8.68527344 2.24458984 -7.7265625 1.41015625 C-4.76764382 -1.00651715 -3.58505602 -1.07551681 0 0 Z " fill="#D8D6D7" transform="translate(67,42)"/>
<path d="M0 0 C0.33 0.66 0.66 1.32 1 2 C2.093125 1.835 3.18625 1.67 4.3125 1.5 C10.49295775 0.66197183 10.49295775 0.66197183 14 3 C11.64729407 4.17635297 10.179248 4.13359359 7.5625 4.125 C6.38880859 4.12886719 6.38880859 4.12886719 5.19140625 4.1328125 C3 4 3 4 0 3 C0 2.01 0 1.02 0 0 Z " fill="#A6A4A5" transform="translate(267,90)"/>
<path d="M0 0 C4.875 1.75 4.875 1.75 6 4 C5.34 4 4.68 4 4 4 C3.67 4.66 3.34 5.32 3 6 C3 5.34 3 4.68 3 4 C-1.62 4 -6.24 4 -11 4 C-11.33 4.66 -11.66 5.32 -12 6 C-12 5.01 -12 4.02 -12 3 C-5.565 2.505 -5.565 2.505 1 2 C0.67 1.34 0.34 0.68 0 0 Z " fill="#908E8E" transform="translate(353,69)"/>
<path d="M0 0 C0.99 0 1.98 0 3 0 C4.60725635 3.21451269 4.05748185 6.43612536 4 10 C2.68 10 1.36 10 0 10 C0 6.7 0 3.4 0 0 Z M2 2 C1.67 3.98 1.34 5.96 1 8 C1.99 8.495 1.99 8.495 3 9 C3 6.69 3 4.38 3 2 C2.67 2 2.34 2 2 2 Z " fill="#8C8887" transform="translate(319,53)"/>
<path d="M0 0 C0.66 0 1.32 0 2 0 C3.4783226 2.95664519 3.06032783 5.74229737 3 9 C3.66 9 4.32 9 5 9 C5 9.66 5 10.32 5 11 C3.68 11 2.36 11 1 11 C0.67 7.37 0.34 3.74 0 0 Z " fill="#CECDCD" transform="translate(159,61)"/>
<path d="M0 0 C1.32 0.33 2.64 0.66 4 1 C4 3.64 4 6.28 4 9 C3.01 9 2.02 9 1 9 C1 8.67 1 8.34 1 8 C0.67 8 0.34 8 0 8 C0 5.36 0 2.72 0 0 Z " fill="#8B8080" transform="translate(393,53)"/>
<path d="M0 0 C0.99 0.33 1.98 0.66 3 1 C2.01 1.66 1.02 2.32 0 3 C-0.969375 3.721875 -1.93875 4.44375 -2.9375 5.1875 C-6 7 -6 7 -8.375 6.75 C-8.91125 6.5025 -9.4475 6.255 -10 6 C-10 5.34 -10 4.68 -10 4 C-8.9171875 3.8453125 -8.9171875 3.8453125 -7.8125 3.6875 C-4.91046781 3.13181279 -4.91046781 3.13181279 -2.375 1.375 C-1.59125 0.92125 -0.8075 0.4675 0 0 Z " fill="#494646" transform="translate(93,35)"/>
<path d="M0 0 C3 1 3 1 4 3 C4.13415472 5.6723621 4.04318541 8.32250488 4 11 C3.34 11 2.68 11 2 11 C1.34 7.37 0.68 3.74 0 0 Z " fill="#DEDCDA" transform="translate(160,59)"/>
<path d="M0 0 C1.32 0 2.64 0 4 0 C4.33 0.99 4.66 1.98 5 3 C4.01 3.495 4.01 3.495 3 4 C3.33 5.32 3.66 6.64 4 8 C2.68 7.34 1.36 6.68 0 6 C0 4.02 0 2.04 0 0 Z " fill="#767372" transform="translate(189,46)"/>
<path d="M0 0 C1.32 0 2.64 0 4 0 C4.33 1.98 4.66 3.96 5 6 C4.01 6.495 4.01 6.495 3 7 C3 5.68 3 4.36 3 3 C2.34 3 1.68 3 1 3 C1.33 4.65 1.66 6.3 2 8 C1.34 8 0.68 8 0 8 C0 5.36 0 2.72 0 0 Z " fill="#878383" transform="translate(356,45)"/>
<path d="M0 0 C3.96 0 7.92 0 12 0 C11.67 0.66 11.34 1.32 11 2 C10.34 2 9.68 2 9 2 C9 2.66 9 3.32 9 4 C7.68 3.67 6.36 3.34 5 3 C5.66 3 6.32 3 7 3 C7 2.34 7 1.68 7 1 C4.69 1 2.38 1 0 1 C0 0.67 0 0.34 0 0 Z " fill="#8D8786" transform="translate(249,64)"/>
<path d="M0 0 C1.98 0 3.96 0 6 0 C6 1.32 6 2.64 6 4 C4.02 4 2.04 4 0 4 C0 2.68 0 1.36 0 0 Z " fill="#7B7475" transform="translate(429,43)"/>
<path d="M0 0 C0.20367187 0.64453125 0.40734375 1.2890625 0.6171875 1.953125 C1.8667935 4.31153872 1.8667935 4.31153872 4.8203125 4.609375 C5.91085937 4.65578125 7.00140625 4.7021875 8.125 4.75 C9.76855469 4.83507813 9.76855469 4.83507813 11.4453125 4.921875 C12.28835938 4.94765625 13.13140625 4.9734375 14 5 C14 5.33 14 5.66 14 6 C11.85473901 6.19393875 9.70876323 6.37998676 7.5625 6.5625 C5.77005859 6.71912109 5.77005859 6.71912109 3.94140625 6.87890625 C2.97074219 6.91886719 2.00007813 6.95882812 1 7 C0 6 0 6 -0.0625 2.9375 C-0.041875 1.968125 -0.02125 0.99875 0 0 Z " fill="#A3A2A2" transform="translate(379,58)"/>
<path d="M0 0 C1.32 0 2.64 0 4 0 C4 1.65 4 3.3 4 5 C3.01 5.33 2.02 5.66 1 6 C0 5 0 5 -0.0625 2.4375 C-0.041875 1.633125 -0.02125 0.82875 0 0 Z " fill="#7D7979" transform="translate(451,53)"/>
<path d="M0 0 C0.99 0.33 1.98 0.66 3 1 C2.34 2.32 1.68 3.64 1 5 C1 4.34 1 3.68 1 3 C-2.96 3 -6.92 3 -11 3 C-11 2.67 -11 2.34 -11 2 C-7.37 2 -3.74 2 0 2 C0 1.34 0 0.68 0 0 Z " fill="#8B8786" transform="translate(188,70)"/>
<path d="M0 0 C1.32 0.33 2.64 0.66 4 1 C4.33 2.98 4.66 4.96 5 7 C4.34 6.67 3.68 6.34 3 6 C2.01 6.33 1.02 6.66 0 7 C0 5 0 5 2 3 C1.34 2.67 0.68 2.34 0 2 C0 1.34 0 0.68 0 0 Z " fill="#A09E9C" transform="translate(202,63)"/>
<path d="M0 0 C0.33 0 0.66 0 1 0 C1 1.65 1 3.3 1 5 C1.66 5 2.32 5 3 5 C2.625 7.4375 2.625 7.4375 2 10 C1.01 10.495 1.01 10.495 0 11 C0 7.37 0 3.74 0 0 Z " fill="#949391" transform="translate(299,64)"/>
<path d="M0 0 C0.99 0.33 1.98 0.66 3 1 C0.51047079 3.66735273 -1.63408134 5.55746343 -5 7 C-3.70700306 4.11562221 -2.34058637 2.12780579 0 0 Z " fill="#C7C5C6" transform="translate(40,57)"/>
<path d="M0 0 C0.66 0 1.32 0 2 0 C2.9765625 6.0546875 2.9765625 6.0546875 3 8 C2.34 8.66 1.68 9.32 1 10 C0 9 0 9 -0.09765625 6.93359375 C-0.08605469 6.10988281 -0.07445312 5.28617188 -0.0625 4.4375 C-0.05347656 3.61121094 -0.04445313 2.78492188 -0.03515625 1.93359375 C-0.02355469 1.29550781 -0.01195312 0.65742187 0 0 Z " fill="#858484" transform="translate(284,45)"/>
<path d="M0 0 C0.66 0.33 1.32 0.66 2 1 C2 2.65 2 4.3 2 6 C0.35 5.67 -1.3 5.34 -3 5 C-2.01 3.35 -1.02 1.7 0 0 Z " fill="#A4A2A0" transform="translate(207,47)"/>
<path d="M0 0 C0.78375 0.33 1.5675 0.66 2.375 1 C4.84332497 2.11866511 4.84332497 2.11866511 7 2 C7.33 3.32 7.66 4.64 8 6 C2.33846154 4.52307692 2.33846154 4.52307692 0.625 1.875 C0.41875 1.25625 0.2125 0.6375 0 0 Z " fill="#A0A09E" transform="translate(440,88)"/>
<path d="M0 0 C4.41889613 1.35021826 6.34345343 3.26115668 9 7 C4.58110387 5.64978174 2.65654657 3.73884332 0 0 Z " fill="#8D8787" transform="translate(359,54)"/>
<path d="M0 0 C2.97 0.495 2.97 0.495 6 1 C5.67 1.99 5.34 2.98 5 4 C2.03 3.505 2.03 3.505 -1 3 C-0.67 2.01 -0.34 1.02 0 0 Z " fill="#D3D3D3" transform="translate(75,51)"/>
<path d="M0 0 C1.4540625 0.0309375 1.4540625 0.0309375 2.9375 0.0625 C1.9475 0.7225 0.9575 1.3825 -0.0625 2.0625 C1.2575 2.7225 2.5775 3.3825 3.9375 4.0625 C1.6275 4.0625 -0.6825 4.0625 -3.0625 4.0625 C-3.3925 3.0725 -3.7225 2.0825 -4.0625 1.0625 C-3.0625 0.0625 -3.0625 0.0625 0 0 Z " fill="#D5D4D3" transform="translate(99.0625,35.9375)"/>
<path d="M0 0 C0.86625 0.556875 0.86625 0.556875 1.75 1.125 C-0.23 1.785 -2.21 2.445 -4.25 3.125 C-4.91 2.465 -5.57 1.805 -6.25 1.125 C-2.80384615 -1.09038462 -2.80384615 -1.09038462 0 0 Z " fill="#C7C3C4" transform="translate(48.25,54.875)"/>
</svg>
