<?xml version="1.0" encoding="UTF-8"?>
<svg version="1.1" xmlns="http://www.w3.org/2000/svg" width="405" height="116">
<path d="M0 0 C0.6328125 2.50390625 0.6328125 2.50390625 1.125 5.5625 C1.29257812 6.57441406 1.46015625 7.58632813 1.6328125 8.62890625 C1.75398438 9.41136719 1.87515625 10.19382812 2 11 C-2.20961305 12.84670417 -5.38820072 13.18085487 -10 13 C-9.30132812 13.53109375 -8.60265625 14.0621875 -7.8828125 14.609375 C-6.97273438 15.31578125 -6.06265625 16.0221875 -5.125 16.75 C-4.22007812 17.44609375 -3.31515625 18.1421875 -2.3828125 18.859375 C-0.119224 20.89289385 0.99790756 22.16649723 2 25 C2 25.99 2 26.98 2 28 C2.66 28 3.32 28 4 28 C4.2475 27.38125 4.495 26.7625 4.75 26.125 C6.20628639 23.64931313 7.37812506 23.04874998 10 22 C7.69 21.67 5.38 21.34 3 21 C3.34782609 10.91304348 3.34782609 10.91304348 5.875 7.375 C9.68163853 4.91188095 12.93701915 4.81093338 17.375 4.75 C18.49648438 4.72421875 19.61796875 4.6984375 20.7734375 4.671875 C24.32639283 5.03319249 26.16250117 5.87445542 29 8 C29.495 8.99 29.495 8.99 30 10 C30.33 8.68 30.66 7.36 31 6 C31.66 6 32.32 6 33 6 C32.938125 5.236875 32.87625 4.47375 32.8125 3.6875 C33 1 33 1 34.25 -0.75 C37.5043929 -3.07456635 40.8458053 -3.11991463 44.75 -3.0625 C45.54921875 -3.05347656 46.3484375 -3.04445312 47.171875 -3.03515625 C47.77515625 -3.02355469 48.3784375 -3.01195312 49 -3 C50 1.75 50 1.75 50 4 C48.68 4.33 47.36 4.66 46 5 C46.639375 5.28875 47.27875 5.5775 47.9375 5.875 C50 7 50 7 51 9 C51.39960938 8.53335938 51.79921875 8.06671875 52.2109375 7.5859375 C55.53214592 4.64180951 59.67676898 4.25614519 64 4 C68.64900618 4.6858006 71.85718272 5.8592054 75.20703125 9.203125 C77.3461557 12.53997272 77.61956208 14.75246387 77.8125 18.6875 C77.88082031 19.82574219 77.94914062 20.96398437 78.01953125 22.13671875 C78 25 78 25 77 27 C77.03138203 28.77165801 77.0988943 30.54278082 77.1875 32.3125 C77.22255195 36.1381702 77.18568999 37.67504252 75.25 41.0625 C70.54370716 45.11514105 66.7749128 45.38389802 60.6953125 45.24609375 C57.12231612 44.91986365 54.87749707 44.1581228 52 42 C48.10358564 36.37287428 48.65494154 30.68589596 48.8125 24.125 C48.83280273 22.52011719 48.83280273 22.52011719 48.85351562 20.8828125 C48.88871376 18.25468489 48.93795307 15.62760806 49 13 C48.34 13 47.68 13 47 13 C47 23.23 47 33.46 47 44 C42 45 42 45 33 44 C32.67 33.77 32.34 23.54 32 13 C31.67 23.23 31.34 33.46 31 44 C8.96296296 45.4691358 8.96296296 45.4691358 5.5625 43.8125 C3.64338879 41.58633099 3.31237804 39.88949684 3 37 C2.62875 37.763125 2.2575 38.52625 1.875 39.3125 C-0.54208661 42.77699081 -1.97037179 43.6567906 -6 45 C-12.48958564 45.64984877 -18.48597168 45.91786223 -24 42 C-27.25195722 37.12206417 -27.11325659 32.77608621 -27 27 C-23.37 26.67 -19.74 26.34 -16 26 C-17.44375 24.9275 -18.8875 23.855 -20.375 22.75 C-23.49969226 20.42880004 -25.6985263 18.72443006 -27 15 C-27.68422144 9.73308612 -27.59059434 5.29476452 -25.375 0.4375 C-18.06604722 -7.06379364 -8.2845707 -4.14228535 0 0 Z M-13 6 C-13 7.65 -13 9.3 -13 11 C-12.67 11 -12.34 11 -12 11 C-12 9.35 -12 7.7 -12 6 C-12.33 6 -12.66 6 -13 6 Z M16 13 C16 14.98 16 16.96 16 19 C16.33 19 16.66 19 17 19 C17 17.02 17 15.04 17 13 C16.67 13 16.34 13 16 13 Z M63 26 C63 29.63 63 33.26 63 37 C63.33 37 63.66 37 64 37 C64 33.7 64 30.4 64 27 C64.66 26.67 65.32 26.34 66 26 C65.01 26 64.02 26 63 26 Z M-13 28 C-13 30.31 -13 32.62 -13 35 C-12.67 35 -12.34 35 -12 35 C-12 32.69 -12 30.38 -12 28 C-12.33 28 -12.66 28 -13 28 Z M16 31 C16 32.98 16 34.96 16 37 C16.33 37 16.66 37 17 37 C17 35.02 17 33.04 17 31 C16.67 31 16.34 31 16 31 Z " fill="#1E1E1E" transform="translate(294,38)"/>
<path d="M0 0 C1.3427279 0.66896622 2.67816107 1.35315109 4 2.0625 C4.99 2.5575 4.99 2.5575 6 3.0625 C6 3.7225 6 4.3825 6 5.0625 C6.56847656 5.17207031 7.13695313 5.28164063 7.72265625 5.39453125 C12.82310066 6.44186791 17.20531065 7.99582356 22 10.0625 C23.87027282 10.55979798 25.7457634 11.0377279 27.625 11.5 C33.14920034 12.96050776 36.26309911 14.84645403 39.8125 19.375 C41.3523697 22.85996827 41.40477864 25.28456598 41 29.0625 C38.57490261 34.5508783 34.825266 37.26320051 29.4140625 39.6328125 C24.80840698 41.30711918 20.42993091 41.64750234 15.5625 41.8125 C14.76779297 41.85503906 13.97308594 41.89757812 13.15429688 41.94140625 C8.32244274 42.15370904 3.75285661 41.91329459 -1.03173828 41.19848633 C-4.19358601 40.98003567 -6.98753601 42.16404583 -10 43.0625 C-14.68075238 43.46457435 -18.85677831 43.40123235 -23.375 42.0625 C-30.19863212 40.18011873 -37.1230039 40.67189099 -44 42.0625 C-53.58356729 42.66234482 -60.620633 41.44886511 -68 35.0625 C-70.60648549 31.66273632 -70.36602919 28.23523277 -70 24.0625 C-67.9851997 18.55537917 -62.88875679 15.86113614 -58 13.0625 C-57.01 12.7325 -56.02 12.4025 -55 12.0625 C-54.443125 11.134375 -53.88625 10.20625 -53.3125 9.25 C-49.76886943 4.36553625 -44.85705505 2.24539543 -39 1.0625 C-31.88038278 0.83283493 -31.88038278 0.83283493 -28.125 1.8125 C-24.66869824 2.08900414 -23.36404062 1.50740121 -20.25 0.125 C-13.12967338 -2.93876873 -7.13853564 -3.11811237 0 0 Z " fill="#E4E4E4" transform="translate(89,34.9375)"/>
<path d="M0 0 C1.093125 0.00257812 2.18625 0.00515625 3.3125 0.0078125 C4.405625 0.00523438 5.49875 0.00265625 6.625 0 C9.3125 0.1328125 9.3125 0.1328125 10.3125 1.1328125 C10.40545815 2.57571037 10.42996513 4.02311035 10.42602539 5.46899414 C10.42591209 6.85031273 10.42591209 6.85031273 10.42579651 8.25953674 C10.42063522 9.26056931 10.41547394 10.26160187 10.41015625 11.29296875 C10.4087413 12.31257187 10.40732635 13.33217499 10.40586853 14.38267517 C10.40025097 17.65358357 10.3876955 20.92442463 10.375 24.1953125 C10.36998726 26.40690006 10.36542396 28.61848868 10.36132812 30.83007812 C10.35027584 36.26434607 10.33352063 41.69857447 10.3125 47.1328125 C6.34030507 48.22711956 2.50449598 48.32975852 -1.59375 48.37109375 C-2.73632263 48.38320137 -2.73632263 48.38320137 -3.90197754 48.39555359 C-5.50901031 48.40935162 -7.11607187 48.42009282 -8.72314453 48.42797852 C-10.36613552 48.43953512 -12.00908792 48.46004476 -13.65185547 48.48950195 C-16.02857917 48.53210495 -18.40419231 48.54833264 -20.78125 48.55859375 C-21.87983337 48.58485588 -21.87983337 48.58485588 -23.00061035 48.61164856 C-26.44219251 48.59700364 -28.34691054 48.38463921 -31.1484375 46.31323242 C-33.33388239 43.21706994 -33.21931335 40.88678751 -33.1875 37.1328125 C-33.1978125 35.9159375 -33.208125 34.6990625 -33.21875 33.4453125 C-32.60393288 29.61174691 -31.70745422 28.47665757 -28.6875 26.1328125 C-28.0275 25.8028125 -27.3675 25.4728125 -26.6875 25.1328125 C-27.37714844 25.14441406 -28.06679687 25.15601562 -28.77734375 25.16796875 C-34.84522652 25.22623374 -40.67107396 24.92185198 -46.6875 24.1328125 C-46.6875 26.4428125 -46.6875 28.7528125 -46.6875 31.1328125 C-46.3575 30.8028125 -46.0275 30.4728125 -45.6875 30.1328125 C-44.04409133 30.03426595 -42.3963539 30.00308839 -40.75 30.0078125 C-39.85410156 30.00523438 -38.95820313 30.00265625 -38.03515625 30 C-35.6875 30.1328125 -35.6875 30.1328125 -33.6875 31.1328125 C-33.35293795 36.597326 -34.00748954 40.32727649 -36.6875 45.1328125 C-40.38552687 47.9079461 -43.10084456 48.54291445 -47.6875 48.5078125 C-48.698125 48.51554687 -49.70875 48.52328125 -50.75 48.53125 C-54.20473774 48.06265525 -55.96583696 47.3119819 -58.6875 45.1328125 C-62.66936525 39.68394426 -62.20313966 33.6076318 -62.1875 27.1328125 C-62.21585938 26.06546875 -62.24421875 24.998125 -62.2734375 23.8984375 C-62.2951794 15.15819347 -62.2951794 15.15819347 -59.453125 11.48046875 C-55.37424255 8.01802758 -51.97804184 7.23470442 -46.6875 7.1328125 C-42.39435096 7.83844529 -38.93210983 9.00488484 -35.6875 11.9453125 C-34.45063916 14.65094559 -34.02222639 17.18722024 -33.6875 20.1328125 C-33.44966797 19.21048828 -33.44966797 19.21048828 -33.20703125 18.26953125 C-31.30537843 11.68203777 -31.30537843 11.68203777 -28.4375 9.1328125 C-22.00085544 6.79221448 -16.09582608 6.69864213 -9.6875 9.1328125 C-6.14500778 11.59568804 -5.67624507 15.10177491 -4.6875 19.1328125 C-4.62691406 17.84503906 -4.56632812 16.55726562 -4.50390625 15.23046875 C-4.41951753 13.55207091 -4.3348687 11.87368614 -4.25 10.1953125 C-4.21068359 9.34517578 -4.17136719 8.49503906 -4.13085938 7.61914062 C-4.06801758 6.40581055 -4.06801758 6.40581055 -4.00390625 5.16796875 C-3.96724854 4.419104 -3.93059082 3.67023926 -3.89282227 2.89868164 C-3.55239699 -0.02913761 -2.98432596 0.14748122 0 0 Z M-19.6875 16.1328125 C-19.6875 18.1128125 -19.6875 20.0928125 -19.6875 22.1328125 C-19.3575 22.1328125 -19.0275 22.1328125 -18.6875 22.1328125 C-18.6875 20.1528125 -18.6875 18.1728125 -18.6875 16.1328125 C-19.0175 16.1328125 -19.3475 16.1328125 -19.6875 16.1328125 Z M-19.6875 35.1328125 C-19.6875 36.7828125 -19.6875 38.4328125 -19.6875 40.1328125 C-19.3575 40.1328125 -19.0275 40.1328125 -18.6875 40.1328125 C-18.6875 38.4828125 -18.6875 36.8328125 -18.6875 35.1328125 C-19.0175 35.1328125 -19.3475 35.1328125 -19.6875 35.1328125 Z " fill="#292929" transform="translate(225.6875,34.8671875)"/>
<path d="M0 0 C2.10526379 1.11212848 3.34908527 2.04764419 4.796875 3.94921875 C5.30859375 6.4296875 5.30859375 6.4296875 5.484375 9.13671875 C5.58298828 10.48830078 5.58298828 10.48830078 5.68359375 11.8671875 C5.72097656 12.55425781 5.75835937 13.24132813 5.796875 13.94921875 C1.74551273 14.58472656 -2.10568288 15.0058328 -6.203125 14.94921875 C-5.28080078 15.62017578 -5.28080078 15.62017578 -4.33984375 16.3046875 C-3.53160156 16.90925781 -2.72335938 17.51382813 -1.890625 18.13671875 C-0.68986328 19.02423828 -0.68986328 19.02423828 0.53515625 19.9296875 C4.106697 23.11878347 5.62212137 25.57480505 6.23046875 30.359375 C6.23240234 32.16728516 6.23240234 32.16728516 6.234375 34.01171875 C6.26337891 35.82349609 6.26337891 35.82349609 6.29296875 37.671875 C5.7069197 41.54349041 4.87027674 42.61040864 1.796875 44.94921875 C-3.03880001 48.09290809 -8.66159803 47.51423719 -14.203125 46.94921875 C-17.45429477 46.06507964 -18.5475797 45.25838858 -21.203125 42.94921875 C-23.29253994 38.50566662 -23.44571018 33.80092232 -23.203125 28.94921875 C-20.233125 28.28921875 -17.263125 27.62921875 -14.203125 26.94921875 C-14.76902344 26.4903125 -15.33492187 26.03140625 -15.91796875 25.55859375 C-16.65144531 24.945 -17.38492188 24.33140625 -18.140625 23.69921875 C-18.87152344 23.0959375 -19.60242188 22.49265625 -20.35546875 21.87109375 C-23.84964856 18.23655577 -23.43045643 13.93745258 -23.3515625 9.1328125 C-23.1595339 6.30797066 -22.69747091 4.36863594 -21.203125 1.94921875 C-14.2563751 -3.03819144 -7.75975571 -2.93318766 0 0 Z M-9.203125 7.94921875 C-9.203125 9.59921875 -9.203125 11.24921875 -9.203125 12.94921875 C-8.873125 12.94921875 -8.543125 12.94921875 -8.203125 12.94921875 C-8.203125 11.29921875 -8.203125 9.64921875 -8.203125 7.94921875 C-8.533125 7.94921875 -8.863125 7.94921875 -9.203125 7.94921875 Z M-9.203125 29.94921875 C-10.55930999 31.0745598 -10.55930999 31.0745598 -10.265625 34.01171875 C-10.245 34.98109375 -10.224375 35.95046875 -10.203125 36.94921875 C-9.213125 36.61921875 -8.223125 36.28921875 -7.203125 35.94921875 C-7.533125 33.96921875 -7.863125 31.98921875 -8.203125 29.94921875 C-8.533125 29.94921875 -8.863125 29.94921875 -9.203125 29.94921875 Z " fill="#202020" transform="translate(157.203125,36.05078125)"/>
<path d="M0 0 C1.12148437 -0.02578125 2.24296875 -0.0515625 3.3984375 -0.078125 C7.03555317 0.29175117 8.76898945 0.99267207 11.625 3.25 C14.23118672 6.89111749 15.00220807 9.3914508 14.98828125 13.84765625 C14.98763672 14.89630859 14.98699219 15.94496094 14.98632812 17.02539062 C14.97021484 18.11013672 14.95410156 19.19488281 14.9375 20.3125 C14.94233398 21.94541992 14.94233398 21.94541992 14.94726562 23.61132812 C14.88608773 32.64897224 14.88608773 32.64897224 12.625 36.25 C8.76397923 39.90780915 5.93854349 40.5654104 0.625 40.75 C-4.68947905 40.57197155 -7.47357296 39.84341964 -11.375 36.25 C-14.59940153 31.41339771 -13.74382987 26.12327203 -13.75 20.4375 C-13.77449219 19.26123047 -13.79898438 18.08496094 -13.82421875 16.87304688 C-13.86146932 5.8903374 -13.86146932 5.8903374 -9.375 1.25 C-6.07164934 0.14888311 -3.47667863 0.04773472 0 0 Z M0.625 21.25 C0.625 24.88 0.625 28.51 0.625 32.25 C0.955 32.25 1.285 32.25 1.625 32.25 C1.625 28.95 1.625 25.65 1.625 22.25 C2.285 21.92 2.945 21.59 3.625 21.25 C2.635 21.25 1.645 21.25 0.625 21.25 Z " fill="#0F0F0F" transform="translate(251.375,42.75)"/>
<path d="M0 0 C3.90043965 2.94522994 4.73056941 4.42736613 5.55078125 9.21484375 C6.37873483 18.24253035 6.37873483 18.24253035 5 21 C5.03138203 22.77165801 5.0988943 24.54278082 5.1875 26.3125 C5.22255195 30.1381702 5.18568999 31.67504252 3.25 35.0625 C-0.61138752 38.3875837 -3.39936532 39.27802547 -8.5 39.25 C-9.4384375 39.25515625 -10.376875 39.2603125 -11.34375 39.265625 C-14.20435244 38.97956476 -15.68735122 38.7050885 -18 37 C-22.00154499 31.5046656 -21.44543188 25.44462357 -21.375 18.9375 C-21.38660156 17.86177734 -21.39820313 16.78605469 -21.41015625 15.67773438 C-21.40628906 14.63810547 -21.40242188 13.59847656 -21.3984375 12.52734375 C-21.39505371 11.58624756 -21.39166992 10.64515137 -21.38818359 9.67553711 C-20.92293982 6.46886636 -19.93705348 4.58302241 -18 2 C-17.01 1.67 -16.02 1.34 -15 1 C-15 0.34 -15 -0.32 -15 -1 C-9.6049508 -2.31986025 -5.22717786 -1.81964156 0 0 Z M-9 20 C-9 23.63 -9 27.26 -9 31 C-8.67 31 -8.34 31 -8 31 C-8 27.7 -8 24.4 -8 21 C-7.34 20.67 -6.68 20.34 -6 20 C-6.99 20 -7.98 20 -9 20 Z " fill="#0F0F0F" transform="translate(366,44)"/>
<path d="M0 0 C1.5544263 2.9736851 2.12787129 5.42149138 2.4375 8.75 C3.0975 6.44 3.7575 4.13 4.4375 1.75 C5.81182457 5.56756824 5.11725039 8.82255329 4.4375 12.75 C-0.78995859 13.9563366 -5.32778314 13.50612577 -10.5625 12.75 C-10.5625 15.06 -10.5625 17.37 -10.5625 19.75 C-10.2325 19.42 -9.9025 19.09 -9.5625 18.75 C-7.91909133 18.65145345 -6.2713539 18.62027589 -4.625 18.625 C-3.72910156 18.62242188 -2.83320313 18.61984375 -1.91015625 18.6171875 C0.4375 18.75 0.4375 18.75 2.4375 19.75 C2.77206205 25.2145135 2.11751046 28.94446399 -0.5625 33.75 C-4.26052687 36.5251336 -6.97584456 37.16010195 -11.5625 37.125 C-12.573125 37.13273437 -13.58375 37.14046875 -14.625 37.1484375 C-18.07973774 36.67984275 -19.84083696 35.9291694 -22.5625 33.75 C-26.54436525 28.30113176 -26.07813966 22.2248193 -26.0625 15.75 C-26.09085938 14.68265625 -26.11921875 13.6153125 -26.1484375 12.515625 C-26.17017789 3.77598888 -26.17017789 3.77598888 -23.26171875 0.09375 C-16.68557776 -5.61635795 -6.62611575 -5.81805285 0 0 Z " fill="#1A1A1A" transform="translate(189.5625,46.25)"/>
<path d="M0 0 C0.79921875 0.00902344 1.5984375 0.01804688 2.421875 0.02734375 C3.02515625 0.03894531 3.6284375 0.05054688 4.25 0.0625 C5.25 4.8125 5.25 4.8125 5.25 7.0625 C3.93 7.3925 2.61 7.7225 1.25 8.0625 C1.889375 8.35125 2.52875 8.64 3.1875 8.9375 C5.25 10.0625 5.25 10.0625 6.25 12.0625 C7.24 11.0725 8.23 10.0825 9.25 9.0625 C10.24 9.3925 11.23 9.7225 12.25 10.0625 C11.610625 10.495625 10.97125 10.92875 10.3125 11.375 C7.98253997 12.97489177 7.98253997 12.97489177 7.25 16.0625 C7.01690334 20.01691633 7.064827 23.97693779 7.0625 27.9375 C7.04413086 29.57138672 7.04413086 29.57138672 7.02539062 31.23828125 C7.02345703 32.29144531 7.02152344 33.34460938 7.01953125 34.4296875 C7.01336792 35.86997314 7.01336792 35.86997314 7.00708008 37.33935547 C7.26663234 40.24894941 8.03718202 42.41935593 9.25 45.0625 C8.59 45.0625 7.93 45.0625 7.25 45.0625 C3.47700174 39.33863387 3.90192889 33.87384577 4.0625 27.1875 C4.08280273 25.58261719 4.08280273 25.58261719 4.10351562 23.9453125 C4.13871376 21.31718489 4.18795307 18.69010806 4.25 16.0625 C3.59 16.0625 2.93 16.0625 2.25 16.0625 C2.25 26.2925 2.25 36.5225 2.25 47.0625 C-2.75 48.0625 -2.75 48.0625 -11.75 47.0625 C-12.08 36.8325 -12.41 26.6025 -12.75 16.0625 C-13.08 26.2925 -13.41 36.5225 -13.75 47.0625 C-14.08 47.0625 -14.41 47.0625 -14.75 47.0625 C-14.94265746 42.29403759 -15.12131528 37.52533151 -15.28710938 32.75585938 C-15.34545064 31.13397216 -15.40759217 29.51221696 -15.47363281 27.890625 C-15.56798567 25.5575362 -15.64858886 23.2243116 -15.7265625 20.890625 C-15.75875885 20.16756165 -15.7909552 19.44449829 -15.8241272 18.69952393 C-15.93511534 14.95584891 -15.85305499 12.23502663 -13.75 9.0625 C-13.09 9.0625 -12.43 9.0625 -11.75 9.0625 C-11.811875 8.299375 -11.87375 7.53625 -11.9375 6.75 C-11.75 4.0625 -11.75 4.0625 -10.5 2.3125 C-7.2456071 -0.01206635 -3.9041947 -0.05741463 0 0 Z " fill="#3F3F3F" transform="translate(338.75,34.9375)"/>
<path d="M0 0 C3.96 0 7.92 0 12 0 C12 15.18 12 30.36 12 46 C8 47 8 47 0 47 C0 31.49 0 15.98 0 0 Z " fill="#171717" transform="translate(224,36)"/>
<path d="M0 0 C0.8971875 0.48146484 0.8971875 0.48146484 1.8125 0.97265625 C2.4725 1.30265625 3.1325 1.63265625 3.8125 1.97265625 C3.8125 2.63265625 3.8125 3.29265625 3.8125 3.97265625 C4.38097656 4.08222656 4.94945312 4.19179688 5.53515625 4.3046875 C10.63560066 5.35202416 15.01781065 6.90597981 19.8125 8.97265625 C21.68277282 9.46995423 23.5582634 9.94788415 25.4375 10.41015625 C30.96170034 11.87066401 34.07559911 13.75661028 37.625 18.28515625 C39.1648697 21.77012452 39.21727864 24.19472223 38.8125 27.97265625 C36.38740261 33.46103455 32.637766 36.17335676 27.2265625 38.54296875 C22.62090698 40.21727543 18.24243091 40.55765859 13.375 40.72265625 C12.58029297 40.76519531 11.78558594 40.80773437 10.96679688 40.8515625 C6.12013234 41.06451603 1.53732607 40.8193195 -3.26196289 40.10253906 C-5.40820538 39.83547079 -5.40820538 39.83547079 -8.1875 40.97265625 C-10.41568441 41.04202687 -12.64584524 41.05722709 -14.875 41.03515625 C-16.64423828 41.02162109 -16.64423828 41.02162109 -18.44921875 41.0078125 C-19.35285156 40.99621094 -20.25648437 40.98460937 -21.1875 40.97265625 C-21.1875 40.64265625 -21.1875 40.31265625 -21.1875 39.97265625 C-20.47464844 39.85148437 -19.76179688 39.7303125 -19.02734375 39.60546875 C-12.5978751 38.49728107 -12.5978751 38.49728107 -6.3125 36.78515625 C-2.9410269 35.90857324 -1.51975387 36.26356056 1.8125 36.97265625 C11.78209531 37.50064105 23.37737483 38.10344898 31.8125 31.97265625 C34.50435546 27.93487306 34.58737387 24.71355123 33.8125 19.97265625 C31.71007735 16.67886076 30.07300604 15.34863136 26.32421875 14.23046875 C23.15006292 13.55980775 20.06259739 12.97265625 16.8125 12.97265625 C16.8125 13.63265625 16.8125 14.29265625 16.8125 14.97265625 C12.65763646 14.36164691 9.53551851 12.87215549 5.8125 10.97265625 C4.86375 10.68390625 3.915 10.39515625 2.9375 10.09765625 C0.09722852 9.07515852 -1.43534611 8.09614134 -3.8125 6.34765625 C-8.96868208 2.98622216 -14.23100654 3.28375292 -20.1875 3.97265625 C-21.321875 4.36453125 -22.45625 4.75640625 -23.625 5.16015625 C-26.1875 5.97265625 -26.1875 5.97265625 -29.0625 4.59765625 C-29.76375 4.06140625 -30.465 3.52515625 -31.1875 2.97265625 C-20.26681864 -2.56248362 -11.54199907 -5.75038882 0 0 Z " fill="#CACACA" transform="translate(91.1875,36.02734375)"/>
<path d="M0 0 C1.85625 0.0309375 1.85625 0.0309375 3.75 0.0625 C4.245 1.5475 4.245 1.5475 4.75 3.0625 C3.95335937 3.08828125 3.15671875 3.1140625 2.3359375 3.140625 C-5.56016246 3.56328729 -9.61957024 4.43207024 -15.25 10.0625 C-15.8925235 12.13124034 -15.8925235 12.13124034 -16.25 14.0625 C-15.095 13.5675 -13.94 13.0725 -12.75 12.5625 C-6.26380395 10.14450112 -0.73939817 10.46674073 5.75 13.0625 C5.75 13.7225 5.75 14.3825 5.75 15.0625 C4.69941406 15.02769531 3.64882813 14.99289063 2.56640625 14.95703125 C-5.35679421 14.77487786 -11.83688444 14.98473327 -19.25 18.0625 C-20.91362417 18.41070041 -22.57995171 18.74654492 -24.25 19.0625 C-26.25744615 19.70639782 -28.25945124 20.36812253 -30.25 21.0625 C-30.97961953 28.07295312 -30.97961953 28.07295312 -27.8125 34.0625 C-26.966875 34.7225 -26.12125 35.3825 -25.25 36.0625 C-24.92 36.7225 -24.59 37.3825 -24.25 38.0625 C-29.08766699 37.64784283 -31.10646376 35.6426385 -34.25 32.0625 C-35.78214888 28.99820224 -35.47938548 26.4459358 -35.25 23.0625 C-33.2351997 17.55537917 -28.13875679 14.86113614 -23.25 12.0625 C-22.26 11.7325 -21.27 11.4025 -20.25 11.0625 C-19.693125 10.134375 -19.13625 9.20625 -18.5625 8.25 C-14.22396607 2.26985864 -7.27093453 -0.12118224 0 0 Z " fill="#D2D2D2" transform="translate(54.25,35.9375)"/>
<path d="M0 0 C8.8986581 0.82778215 18.27210871 2.90099449 25 9 C28.12527558 12.98742057 28.53715295 15.98657251 28 21 C25.57490261 26.4883783 21.825266 29.20070051 16.4140625 31.5703125 C11.80840698 33.24461918 7.42993091 33.58500234 2.5625 33.75 C1.76779297 33.79253906 0.97308594 33.83507812 0.15429688 33.87890625 C-4.69236766 34.09185978 -9.27517393 33.84666325 -14.07446289 33.12988281 C-16.22070538 32.86281454 -16.22070538 32.86281454 -19 34 C-21.22818441 34.06937062 -23.45834524 34.08457084 -25.6875 34.0625 C-27.45673828 34.04896484 -27.45673828 34.04896484 -29.26171875 34.03515625 C-30.16535156 34.02355469 -31.06898437 34.01195312 -32 34 C-32 33.67 -32 33.34 -32 33 C-31.28714844 32.87882812 -30.57429688 32.75765625 -29.83984375 32.6328125 C-23.4103751 31.52462482 -23.4103751 31.52462482 -17.125 29.8125 C-13.7535269 28.93591699 -12.33225387 29.29090431 -9 30 C0.96959531 30.5279848 12.56487483 31.13079273 21 25 C23.697414 20.95387899 23.76082691 17.74889762 23 13 C20.88879926 9.53159878 19.08608665 8.32050949 15.20703125 7.17578125 C13.10724293 6.68278747 11.00288991 6.20885417 8.89453125 5.75390625 C5.1850037 4.78772701 2.92334504 3.43612087 0 1 C0 0.67 0 0.34 0 0 Z " fill="#898989" transform="translate(102,43)"/>
<path d="M0 0 C2.59668928 2.59668928 2.25722357 3.69387212 2.265625 7.3046875 C2.26949219 8.89216797 2.26949219 8.89216797 2.2734375 10.51171875 C2.26570313 11.62160156 2.25796875 12.73148438 2.25 13.875 C2.25773437 14.97714844 2.26546875 16.07929687 2.2734375 17.21484375 C2.27085937 18.27574219 2.26828125 19.33664063 2.265625 20.4296875 C2.26336914 21.40147949 2.26111328 22.37327148 2.25878906 23.37451172 C1.99449165 26.0558838 1.36742059 27.70308647 0 30 C-0.66 29.67 -1.32 29.34 -2 29 C-1.34 25.04 -0.68 21.08 0 17 C-2.97 17 -5.94 17 -9 17 C-9 19.64 -9 22.28 -9 25 C-10.98 25.99 -10.98 25.99 -13 27 C-14 26 -14 26 -14.09765625 23.27734375 C-14.06510417 20.18489583 -14.03255208 17.09244792 -14 14 C-9.38 14 -4.76 14 0 14 C0 9.38 0 4.76 0 0 Z M-12 15 C-12 18.63 -12 22.26 -12 26 C-11.67 26 -11.34 26 -11 26 C-11 22.7 -11 19.4 -11 16 C-10.34 15.67 -9.68 15.34 -9 15 C-9.99 15 -10.98 15 -12 15 Z " fill="#929292" transform="translate(264,49)"/>
<path d="M0 0 C2.83165629 1.84924493 4.49737497 2.99474995 6 6 C6.203125 8.05859375 6.203125 8.05859375 6.25 10.4375 C6.27578125 11.21996094 6.3015625 12.00242187 6.328125 12.80859375 C5.92823089 15.47931509 5.05300878 16.31977439 3 18 C2 15 2 15 1.6875 11.5625 C0.89395447 7.45049134 0.396971 6.3778797 -3 4 C-5.95316549 2.8187338 -8.93992531 1.86309799 -12 1 C-12 0.34 -12 -0.32 -12 -1 C-8.26386825 -2.86806588 -3.85664608 -1.14607879 0 0 Z " fill="#CCCCCC" transform="translate(120,50)"/>
<path d="M0 0 C0 0.66 0 1.32 0 2 C-1.7578125 2.9765625 -3.515625 3.953125 -5.2734375 4.9296875 C-7.1612614 6.00897274 -7.1612614 6.00897274 -9 8 C-9.56877701 11.38272643 -9.54367933 14.61532969 -9 18 C-6.72872666 21.02409364 -6.72872666 21.02409364 -4 23 C-3.67 23.66 -3.34 24.32 -3 25 C-7.83766699 24.58534283 -9.85646376 22.5801385 -13 19 C-14.53214888 15.93570224 -14.22938548 13.3834358 -14 10 C-11.55823214 3.96739706 -6.43490287 0 0 0 Z " fill="#8E8E8E" transform="translate(33,49)"/>
<path d="M0 0 C0.66 0.33 1.32 0.66 2 1 C2 2.32 2 3.64 2 5 C3.98 5 5.96 5 8 5 C8 5.33 8 5.66 8 6 C4.75 6.25 4.75 6.25 1 6 C-0.37701298 4.71182656 -1.70644173 3.37195574 -3 2 C-7.86557842 -0.56139481 -12.50031742 -1.67539962 -18 -1 C-20.39988571 -0.10758019 -22.68345559 0.90504215 -24.984375 2.02734375 C-27 3 -27 3 -30 4 C-30.99 3.01 -31.98 2.02 -33 1 C-20.80564652 -3.91991207 -12.06063122 -6.47219218 0 0 Z " fill="#6B6B6B" transform="translate(93,37)"/>
<path d="M0 0 C0.99 0 1.98 0 3 0 C3 2.97 3 5.94 3 9 C2.67 9 2.34 9 2 9 C2 11.31 2 13.62 2 16 C2.33 15.67 2.66 15.34 3 15 C4.68608966 14.92794489 6.37500659 14.91613932 8.0625 14.9375 C8.98160156 14.94652344 9.90070313 14.95554687 10.84765625 14.96484375 C11.55792969 14.97644531 12.26820313 14.98804687 13 15 C13 15.33 13 15.66 13 16 C10.36 16 7.72 16 5 16 C5.020625 17.27875 5.04125 18.5575 5.0625 19.875 C5.125 23.75 5.125 23.75 4 26 C2.35 25.67 0.7 25.34 -1 25 C-0.67 16.75 -0.34 8.5 0 0 Z " fill="#A5A5A5" transform="translate(177,50)"/>
<path d="M0 0 C0.99 0.495 0.99 0.495 2 1 C2.66 0.67 3.32 0.34 4 0 C5.6853196 -0.09534254 7.37449266 -0.12985758 9.0625 -0.125 C9.96097656 -0.12757812 10.85945313 -0.13015625 11.78515625 -0.1328125 C14 0 14 0 15 1 C15.54078331 6.28371889 15.87102911 10.61179736 13 15.1875 C12.01 16.0846875 12.01 16.0846875 11 17 C10.34 16.67 9.68 16.34 9 16 C9.639375 15.360625 10.27875 14.72125 10.9375 14.0625 C13.71854719 9.93306629 13.70541326 6.93432784 14 2 C11.03 2 8.06 2 5 2 C5.020625 3.27875 5.04125 4.5575 5.0625 5.875 C5.125 9.75 5.125 9.75 4 12 C2.68 12 1.36 12 0 12 C0 8.04 0 4.08 0 0 Z " fill="#9C9C9C" transform="translate(356,64)"/>
<path d="M0 0 C0.99 0.33 1.98 0.66 3 1 C3.625 4.0625 3.625 4.0625 3 8 C-0.06637664 10.77751507 -3.495967 12.82290409 -7 15 C-9.21559352 16.80197672 -9.21559352 16.80197672 -9.265625 19.27734375 C-9.26046875 20.15519531 -9.2553125 21.03304687 -9.25 21.9375 C-9.25515625 22.81277344 -9.2603125 23.68804687 -9.265625 24.58984375 C-9.15833837 27.26105634 -9.15833837 27.26105634 -7 30 C-4.94996045 31.19232613 -4.94996045 31.19232613 -3 32 C-4.75 32.75 -4.75 32.75 -7 33 C-10.08112956 30.74050499 -10.91977642 29.50021762 -11.53125 25.6875 C-11.5209375 24.470625 -11.510625 23.25375 -11.5 22 C-11.5103125 20.783125 -11.520625 19.56625 -11.53125 18.3125 C-10.9155586 14.47348303 -10.01349455 13.35692311 -7 11 C-4.30276096 9.36530967 -3.21879014 9 0 9 C0 6.03 0 3.06 0 0 Z " fill="#969696" transform="translate(204,50)"/>
<path d="M0 0 C7.46333382 0.69426361 16.24026725 1.95028872 22.171875 6.76171875 C25.02357591 10.21770866 26.31908269 12.99466242 26.375 17.5 C26.25125 18.655 26.1275 19.81 26 21 C25.67 21 25.34 21 25 21 C24.773125 19.783125 24.54625 18.56625 24.3125 17.3125 C23.15107832 12.90065657 21.84281224 10.68996857 18 8 C14.98673545 7.10405037 11.96703966 6.41690128 8.89453125 5.75390625 C5.1850037 4.78772701 2.92334504 3.43612087 0 1 C0 0.67 0 0.34 0 0 Z " fill="#5D5D5D" transform="translate(102,43)"/>
<path d="M0 0 C1.85625 0.0309375 1.85625 0.0309375 3.75 0.0625 C4.08 1.0525 4.41 2.0425 4.75 3.0625 C3.95335938 3.08828125 3.15671875 3.1140625 2.3359375 3.140625 C-4.09826942 3.4850351 -8.33831056 3.78051433 -13.25 8.0625 C-13.848125 8.578125 -14.44625 9.09375 -15.0625 9.625 C-16.48739536 11.17402061 -16.48739536 11.17402061 -17.25 14.0625 C-18.24 13.7325 -19.23 13.4025 -20.25 13.0625 C-19.59 13.0625 -18.93 13.0625 -18.25 13.0625 C-18.270625 12.010625 -18.29125 10.95875 -18.3125 9.875 C-17.25 6.0625 -17.25 6.0625 -15.3203125 4.51953125 C-10.23877326 1.67886751 -5.86028603 -0.09767143 0 0 Z " fill="#787878" transform="translate(54.25,35.9375)"/>
<path d="M0 0 C3.27101207 1.93534881 5.55568754 3.99096621 7.5 7.3125 C7.75 10.125 7.75 10.125 7.5 12.3125 C5.5 10.3125 5.5 10.3125 4.3125 7.9375 C1.9100398 4.45807488 -0.50819382 2.56163663 -4.5 1.3125 C-10.606846 0.77100627 -16.5161562 0.94444649 -22.5 2.3125 C-17.0898687 -3.6128819 -6.96087622 -3.2510307 0 0 Z " fill="#D1D1D1" transform="translate(89.5,45.6875)"/>
<path d="M0 0 C0 0.33 0 0.66 0 1 C-11.22 1 -22.44 1 -34 1 C-34 0.67 -34 0.34 -34 0 C-9.64013086 -4.67175573 -9.64013086 -4.67175573 0 0 Z " fill="#5A5A5A" transform="translate(69,75)"/>
<path d="M0 0 C0.99 0.33 1.98 0.66 3 1 C2.67 2.65 2.34 4.3 2 6 C0.58847656 5.96519531 0.58847656 5.96519531 -0.8515625 5.9296875 C-2.09679688 5.91164063 -3.34203125 5.89359375 -4.625 5.875 C-6.46964844 5.84019531 -6.46964844 5.84019531 -8.3515625 5.8046875 C-11.94316041 5.9969572 -14.66661175 6.69741444 -18 8 C-17.07133622 5.67834055 -16.4195928 4.27972854 -14.3125 2.875 C-11.34932516 1.75379871 -8.90930703 1.80631941 -5.75 1.875 C-4.67234375 1.89304688 -3.5946875 1.91109375 -2.484375 1.9296875 C-1.25460938 1.96449219 -1.25460938 1.96449219 0 2 C0 1.34 0 0.68 0 0 Z " fill="#C6C6C6" transform="translate(59,37)"/>
<path d="M0 0 C5.29315952 1.48870112 9.26907096 5.08601135 13 9 C14.15111514 12.45334542 14.23995786 15.29893888 14.3125 18.9375 C14.34988281 20.16339844 14.38726562 21.38929687 14.42578125 22.65234375 C13.93316286 26.52549931 13.01241138 27.62928572 10 30 C9.34 29.67 8.68 29.34 8 29 C8.99 28.67 9.98 28.34 11 28 C12.20492118 17.45903383 12.20492118 17.45903383 9.58203125 7.609375 C7.79098604 6.1582083 6.03192255 5.07905095 4 4 C2.64946454 2.68409365 1.30693833 1.35921586 0 0 Z " fill="#A1A1A1" transform="translate(149,51)"/>
<path d="M0 0 C1 2 1 2 1 3 C1.99 4.485 1.99 4.485 3 6 C2.4375 7.9375 2.4375 7.9375 1 10 C-2.3125 10.6875 -2.3125 10.6875 -6 11 C-7.66934283 11.31966139 -9.3373217 11.64731066 -11 12 C-8.6875 9.5 -8.6875 9.5 -6 7 C-5.01 7 -4.02 7 -3 7 C-3 6.34 -3 5.68 -3 5 C-3.66 4.67 -4.32 4.34 -5 4 C-4.01 3.67 -3.02 3.34 -2 3 C-1.34 2.01 -0.68 1.02 0 0 Z " fill="#C1C1C1" transform="translate(36,44)"/>
<path d="M0 0 C0.99588489 2.98765466 1.0792494 4.78941944 0.9921875 7.89453125 C0.97542969 8.85037109 0.95867187 9.80621094 0.94140625 10.79101562 C0.89738872 12.79381331 0.84539776 14.79645276 0.78515625 16.79882812 C0.70304767 22.3560863 0.90607994 26.17255187 4 31 C4.33 31.66 4.66 32.32 5 33 C1.83884224 31.63016497 1.0072908 31.0109362 -1 28 C-1.24291992 25.30444336 -1.24291992 25.30444336 -1.23046875 22.08984375 C-1.22853516 20.93548828 -1.22660156 19.78113281 -1.22460938 18.59179688 C-1.21236328 17.38587891 -1.20011719 16.17996094 -1.1875 14.9375 C-1.18685547 13.72771484 -1.18621094 12.51792969 -1.18554688 11.27148438 C-1.14031621 2.28063241 -1.14031621 2.28063241 0 0 Z " fill="#A7A7A7" transform="translate(239,48)"/>
<path d="M0 0 C0.66 0 1.32 0 2 0 C2 3.96 2 7.92 2 12 C0.68 12.33 -0.64 12.66 -2 13 C-2.05447047 11.58376784 -2.09300508 10.16691809 -2.125 8.75 C-2.14820313 7.96109375 -2.17140625 7.1721875 -2.1953125 6.359375 C-1.9828378 3.79268059 -1.28654105 2.2083933 0 0 Z M-1 7 C-1 8.65 -1 10.3 -1 12 C-0.67 12 -0.34 12 0 12 C0 10.35 0 8.7 0 7 C-0.33 7 -0.66 7 -1 7 Z " fill="#8B8B8B" transform="translate(207,63)"/>
<path d="M0 0 C-1.01869464 2.19411153 -1.97564206 3.97174479 -3.5625 5.8125 C-5.50945189 8.77525287 -5.66490689 11.5150317 -6 15 C-6.66 15 -7.32 15 -8 15 C-7.65296252 4.93591294 -7.65296252 4.93591294 -5.125 1.3125 C-3 0 -3 0 0 0 Z " fill="#7B7B7B" transform="translate(305,44)"/>
<path d="M0 0 C0.33 0.99 0.66 1.98 1 3 C1.66 3 2.32 3 3 3 C3.63019694 11.03501094 3.63019694 11.03501094 1 15.0625 C0.01 16.0215625 0.01 16.0215625 -1 17 C-1.66 16.67 -2.32 16.34 -3 16 C-2.34 15.01 -1.68 14.02 -1 13 C-0.5396236 9.80193335 -0.5396236 9.80193335 -0.375 6.3125 C-0.30023438 5.13300781 -0.22546875 3.95351562 -0.1484375 2.73828125 C-0.09945313 1.83464844 -0.05046875 0.93101563 0 0 Z " fill="#DFDFDF" transform="translate(295,63)"/>
<path d="M0 0 C0 0.66 0 1.32 0 2 C-4.46334184 3.72293135 -8.10201231 4.22240791 -12.875 4.125 C-14.02742188 4.10695313 -15.17984375 4.08890625 -16.3671875 4.0703125 C-17.23601562 4.04710938 -18.10484375 4.02390625 -19 4 C-19 3.67 -19 3.34 -19 3 C-18.26394531 2.87882812 -17.52789062 2.75765625 -16.76953125 2.6328125 C-15.79371094 2.46523437 -14.81789063 2.29765625 -13.8125 2.125 C-12.84957031 1.96257812 -11.88664062 1.80015625 -10.89453125 1.6328125 C-7.98163456 1.08908628 -7.98163456 1.08908628 -5.32421875 -0.1328125 C-3 -1 -3 -1 0 0 Z " fill="#555555" transform="translate(89,73)"/>
<path d="M0 0 C-5.75 5 -5.75 5 -8 5 C-8 9.62 -8 14.24 -8 19 C-8.33 19 -8.66 19 -9 19 C-9.16236745 16.41414795 -9.28095486 13.83848046 -9.375 11.25 C-9.42527344 10.52039063 -9.47554688 9.79078125 -9.52734375 9.0390625 C-9.5859375 6.890625 -9.5859375 6.890625 -9 3 C-4.17073171 -1.3902439 -4.17073171 -1.3902439 0 0 Z " fill="#6A6A6A" transform="translate(307,61)"/>
<path d="M0 0 C3.2578125 0.0234375 3.2578125 0.0234375 7.125 0.375 C8.40632813 0.48585938 9.68765625 0.59671875 11.0078125 0.7109375 C11.99523438 0.80632812 12.98265625 0.90171875 14 1 C14.33 1.99 14.66 2.98 15 4 C3.47835991 4.3690205 3.47835991 4.3690205 -2 2 C-1.34 1.34 -0.68 0.68 0 0 Z " fill="#A5A5A5" transform="translate(30,73)"/>
<path d="M0 0 C2.5654594 2.5654594 2.54046087 4.47686668 3 8 C3.66 5.69 4.32 3.38 5 1 C6.37432457 4.81756824 5.67975039 8.07255329 5 12 C3.68 12 2.36 12 1 12 C0.67 8.04 0.34 4.08 0 0 Z " fill="#B2B2B2" transform="translate(189,47)"/>
<path d="M0 0 C0.53625 0.226875 1.0725 0.45375 1.625 0.6875 C0.51125 1.3371875 0.51125 1.3371875 -0.625 2 C-3.35995485 3.56167206 -3.35995485 3.56167206 -5.375 5.5 C-6.035 5.891875 -6.695 6.28375 -7.375 6.6875 C-10.125 5.875 -10.125 5.875 -12.375 4.6875 C-11.04166667 4.02083333 -9.70833333 3.35416667 -8.375 2.6875 C-7.385 2.130625 -6.395 1.57375 -5.375 1 C-2.375 -0.3125 -2.375 -0.3125 0 0 Z " fill="#767676" transform="translate(72.375,34.3125)"/>
<path d="M0 0 C1.98567708 0.09765625 3.97135417 0.1953125 5.95703125 0.29296875 C6.28703125 1.28296875 6.61703125 2.27296875 6.95703125 3.29296875 C2.99703125 3.29296875 -0.96296875 3.29296875 -5.04296875 3.29296875 C-2.04296875 0.29296875 -2.04296875 0.29296875 0 0 Z " fill="#696969" transform="translate(52.04296875,35.70703125)"/>
<path d="M0 0 C1.32 0 2.64 0 4 0 C4 2.64 4 5.28 4 8 C2.68 7.67 1.36 7.34 0 7 C0 4.69 0 2.38 0 0 Z " fill="#939393" transform="translate(356,50)"/>
<path d="M0 0 C0.66 0 1.32 0 2 0 C2.34615998 5.65394631 1.43425238 9.03006806 -1 14 C-1.66 14 -2.32 14 -3 14 C-2.5359375 12.7625 -2.5359375 12.7625 -2.0625 11.5 C-0.88122417 7.60873845 -0.41775832 4.03833047 0 0 Z " fill="#B3B3B3" transform="translate(190,66)"/>
<path d="M0 0 C3 1 3 1 4 3 C4.039992 4.99960012 4.04346799 7.00047242 4 9 C2.35 9.33 0.7 9.66 -1 10 C-1.02689216 8.52093108 -1.04634621 7.04172517 -1.0625 5.5625 C-1.07410156 4.73878906 -1.08570313 3.91507812 -1.09765625 3.06640625 C-1 1 -1 1 0 0 Z M1 2 C-0.35618499 3.12534105 -0.35618499 3.12534105 -0.0625 6.0625 C-0.041875 7.031875 -0.02125 8.00125 0 9 C0.99 8.67 1.98 8.34 3 8 C2.67 6.02 2.34 4.04 2 2 C1.67 2 1.34 2 1 2 Z " fill="#ACACAC" transform="translate(147,64)"/>
<path d="M0 0 C3.68266103 0.59950296 7.34543185 1.24758891 11 2 C11 2.66 11 3.32 11 4 C7.04 3.67 3.08 3.34 -1 3 C-0.67 2.01 -0.34 1.02 0 0 Z " fill="#898989" transform="translate(89,73)"/>
<path d="M0 0 C0 3.63 0 7.26 0 11 C-0.99 11 -1.98 11 -3 11 C-3 7.7 -3 4.4 -3 1 C-1 0 -1 0 0 0 Z M-2 4 C-2 5.98 -2 7.96 -2 10 C-1.67 10 -1.34 10 -1 10 C-1 8.02 -1 6.04 -1 4 C-1.33 4 -1.66 4 -2 4 Z " fill="#D8D8D8" transform="translate(312,65)"/>
<path d="M0 0 C0 0.66 0 1.32 0 2 C-6.625 6 -6.625 6 -10 6 C-5.38461538 0 -5.38461538 0 0 0 Z " fill="#646464" transform="translate(33,49)"/>
<path d="M0 0 C0.33 0 0.66 0 1 0 C1.05437607 1.58294782 1.09296271 3.16644256 1.125 4.75 C1.14820313 5.63171875 1.17140625 6.5134375 1.1953125 7.421875 C0.99139502 10.1135858 0.36551721 11.69904974 -1 14 C-1.66 13.67 -2.32 13.34 -3 13 C-2.67 11.35 -2.34 9.7 -2 8 C-1.34 8 -0.68 8 0 8 C0 5.36 0 2.72 0 0 Z " fill="#A3A3A3" transform="translate(265,65)"/>
<path d="M0 0 C0.99 0 1.98 0 3 0 C3 2.31 3 4.62 3 7 C2.01 7 1.02 7 0 7 C0 4.69 0 2.38 0 0 Z " fill="#EAEAEA" transform="translate(250,50)"/>
<path d="M0 0 C0.99 0 1.98 0 3 0 C1.60667426 3.36720387 0.0210714 4.9859524 -3 7 C-2.25 2.25 -2.25 2.25 0 0 Z " fill="#5D5D5D" transform="translate(169,44)"/>
<path d="M0 0 C0.33 0 0.66 0 1 0 C1.36923077 6.52307692 1.36923077 6.52307692 -0.5 8.9375 C-0.995 9.288125 -1.49 9.63875 -2 10 C-2.33 9.01 -2.66 8.02 -3 7 C-2.67 6.34 -2.34 5.68 -2 5 C-1.34 5 -0.68 5 0 5 C0 3.35 0 1.7 0 0 Z " fill="#D6D6D6" transform="translate(125,58)"/>
<path d="M0 0 C0.99 0.33 1.98 0.66 3 1 C0.82575883 3.50037734 -0.73045798 4.43628586 -4 5 C-2.25 1.125 -2.25 1.125 0 0 Z " fill="#CECECE" transform="translate(45,40)"/>
<path d="M0 0 C2.875 0.3125 2.875 0.3125 6 1 C6.66 1.99 7.32 2.98 8 4 C7.01 4.33 6.02 4.66 5 5 C4.01 4.34 3.02 3.68 2 3 C2 2.34 2 1.68 2 1 C1.34 0.67 0.68 0.34 0 0 Z " fill="#8B8B8B" transform="translate(116,47)"/>
</svg>
